<svg width="30" height="30" viewBox="0 0 30 30" fill="none" xmlns="http://www.w3.org/2000/svg">
<circle cx="15" cy="15" r="13" fill="#FFEFEC"/>
<path d="M15 1C7.272 1 1 7.272 1 15C1 22.728 7.272 29 15 29C22.728 29 29 22.728 29 15C29 7.272 22.728 1 15 1ZM8.49 24.1C10.324 22.784 12.564 22 15 22C17.436 22 19.676 22.784 21.51 24.1C19.676 25.416 17.436 26.2 15 26.2C12.564 26.2 10.324 25.416 8.49 24.1ZM23.596 22.168C21.23 20.32 18.248 19.2 15 19.2C11.752 19.2 8.77 20.32 6.404 22.168C4.78 20.222 3.8 17.73 3.8 15C3.8 8.812 8.812 3.8 15 3.8C21.188 3.8 26.2 8.812 26.2 15C26.2 17.73 25.22 20.222 23.596 22.168Z" fill="#FF3D12"/>
<path d="M15 6.59998C12.298 6.59998 10.1 8.79798 10.1 11.5C10.1 14.202 12.298 16.4 15 16.4C17.702 16.4 19.9 14.202 19.9 11.5C19.9 8.79798 17.702 6.59998 15 6.59998ZM15 13.6C13.838 13.6 12.9 12.662 12.9 11.5C12.9 10.338 13.838 9.39998 15 9.39998C16.162 9.39998 17.1 10.338 17.1 11.5C17.1 12.662 16.162 13.6 15 13.6Z" fill="#FF3D12"/>
</svg>
