<svg width="28" height="26" viewBox="0 0 28 26" fill="none" xmlns="http://www.w3.org/2000/svg">
<mask id="path-1-inside-1_3667_18294" fill="white">
<path fill-rule="evenodd" clip-rule="evenodd" d="M13.5652 22.4585C21.0571 22.4585 27.1304 17.5531 27.1304 11.5019C27.1304 5.45081 21.0571 0.54541 13.5652 0.54541C6.07335 0.54541 0 5.45081 0 11.5019C0 15.1924 2.25902 18.4567 5.72111 20.442L4.78566 24.0019C4.55636 24.8745 5.50877 25.5806 6.27708 25.1076L10.5652 22.4677C10.6697 22.4033 10.7572 22.3242 10.8275 22.2352C11.7117 22.3816 12.6274 22.4585 13.5652 22.4585Z"/>
</mask>
<path d="M5.72111 20.442L7.65544 20.9503L8.0447 19.4689L6.71601 18.707L5.72111 20.442ZM4.78566 24.0019L6.71999 24.5102L6.71999 24.5102L4.78566 24.0019ZM6.27708 25.1076L5.22857 23.4045L5.22857 23.4045L6.27708 25.1076ZM10.5652 22.4677L9.51673 20.7645L9.51673 20.7645L10.5652 22.4677ZM10.8275 22.2352L11.1541 20.2621L9.98934 20.0693L9.25776 20.9959L10.8275 22.2352ZM27.1304 11.5019H25.1304C25.1304 16.0707 20.3726 20.4585 13.5652 20.4585V22.4585V24.4585C21.7415 24.4585 29.1304 19.0354 29.1304 11.5019H27.1304ZM13.5652 0.54541V2.54541C20.3726 2.54541 25.1304 6.93317 25.1304 11.5019H27.1304H29.1304C29.1304 3.96846 21.7415 -1.45459 13.5652 -1.45459V0.54541ZM0 11.5019H2C2 6.93317 6.75782 2.54541 13.5652 2.54541V0.54541V-1.45459C5.38889 -1.45459 -2 3.96846 -2 11.5019H0ZM5.72111 20.442L6.71601 18.707C3.7245 16.9916 2 14.3171 2 11.5019H0H-2C-2 16.0677 0.793539 19.9219 4.72621 22.177L5.72111 20.442ZM4.78566 24.0019L6.71999 24.5102L7.65544 20.9503L5.72111 20.442L3.78678 19.9337L2.85133 23.4936L4.78566 24.0019ZM6.27708 25.1076L5.22857 23.4045C5.99688 22.9315 6.94929 23.6376 6.71999 24.5102L4.78566 24.0019L2.85133 23.4936C2.16343 26.1114 5.02065 28.2297 7.32558 26.8107L6.27708 25.1076ZM10.5652 22.4677L9.51673 20.7645L5.22857 23.4045L6.27708 25.1076L7.32558 26.8107L11.6137 24.1708L10.5652 22.4677ZM10.8275 22.2352L9.25776 20.9959C9.33177 20.9021 9.42036 20.8239 9.51673 20.7645L10.5652 22.4677L11.6137 24.1708C11.9191 23.9828 12.1826 23.7463 12.3972 23.4746L10.8275 22.2352ZM13.5652 22.4585V20.4585C12.7366 20.4585 11.9302 20.3905 11.1541 20.2621L10.8275 22.2352L10.5009 24.2084C11.4932 24.3726 12.5181 24.4585 13.5652 24.4585V22.4585Z" fill="#7512FF" mask="url(#path-1-inside-1_3667_18294)"/>
<path d="M21.3048 14.0837C21.0341 14.0837 20.7914 14.0394 20.5768 13.9507C20.3668 13.8621 20.1871 13.7337 20.0378 13.5657C19.8931 13.3977 19.7811 13.1947 19.7018 12.9567C19.6224 12.7187 19.5828 12.4527 19.5828 12.1587C19.5828 11.8647 19.6224 11.5987 19.7018 11.3607C19.7811 11.1227 19.8931 10.9221 20.0378 10.7587C20.1871 10.5907 20.3668 10.4624 20.5768 10.3737C20.7914 10.2851 21.0341 10.2407 21.3048 10.2407C21.5754 10.2407 21.8158 10.2851 22.0258 10.3737C22.2404 10.4624 22.4201 10.5907 22.5648 10.7587C22.7141 10.9221 22.8284 11.1227 22.9078 11.3607C22.9871 11.5987 23.0268 11.8647 23.0268 12.1587C23.0268 12.4527 22.9871 12.7187 22.9078 12.9567C22.8284 13.1947 22.7141 13.3977 22.5648 13.5657C22.4201 13.7337 22.2404 13.8621 22.0258 13.9507C21.8158 14.0394 21.5754 14.0837 21.3048 14.0837ZM21.3048 13.2647C21.5101 13.2647 21.6688 13.2017 21.7808 13.0757C21.8928 12.9497 21.9488 12.7701 21.9488 12.5367V11.7877C21.9488 11.5544 21.8928 11.3747 21.7808 11.2487C21.6688 11.1227 21.5101 11.0597 21.3048 11.0597C21.0994 11.0597 20.9408 11.1227 20.8288 11.2487C20.7168 11.3747 20.6608 11.5544 20.6608 11.7877V12.5367C20.6608 12.7701 20.7168 12.9497 20.8288 13.0757C20.9408 13.2017 21.0994 13.2647 21.3048 13.2647Z" fill="#7512FF"/>
<path d="M18.4744 13.9997C18.2878 13.9997 18.1314 13.9414 18.0054 13.8247C17.8841 13.7081 17.8071 13.5517 17.7744 13.3557H17.7324C17.6764 13.5937 17.5528 13.7757 17.3614 13.9017C17.1701 14.0231 16.9344 14.0837 16.6544 14.0837C16.2858 14.0837 16.0034 13.9857 15.8074 13.7897C15.6114 13.5937 15.5134 13.3347 15.5134 13.0127C15.5134 12.6254 15.6534 12.3384 15.9334 12.1517C16.2181 11.9604 16.6031 11.8647 17.0884 11.8647H17.6694V11.6337C17.6694 11.4564 17.6228 11.3164 17.5294 11.2137C17.4361 11.1064 17.2798 11.0527 17.0604 11.0527C16.8551 11.0527 16.6918 11.0971 16.5704 11.1857C16.4491 11.2744 16.3488 11.3747 16.2694 11.4867L15.6534 10.9407C15.8028 10.7214 15.9894 10.5511 16.2134 10.4297C16.4421 10.3037 16.7501 10.2407 17.1374 10.2407C17.6601 10.2407 18.0521 10.3551 18.3134 10.5837C18.5748 10.8124 18.7054 11.1461 18.7054 11.5847V13.1947H19.0484V13.9997H18.4744ZM17.0394 13.3627C17.2121 13.3627 17.3591 13.3254 17.4804 13.2507C17.6064 13.1761 17.6694 13.0547 17.6694 12.8867V12.4527H17.1654C16.7594 12.4527 16.5564 12.5904 16.5564 12.8657V12.9707C16.5564 13.1061 16.5984 13.2064 16.6824 13.2717C16.7664 13.3324 16.8854 13.3627 17.0394 13.3627Z" fill="#7512FF"/>
<path d="M11.6482 8.81982H12.6842V11.8788H12.7262L13.1812 11.1998L13.9162 10.3248H15.0642L13.8392 11.7318L15.2042 13.9998H13.9722L13.1462 12.4458L12.6842 12.9638V13.9998H11.6482V8.81982Z" fill="#7512FF"/>
<path d="M10.3089 13.9997C10.1222 13.9997 9.9659 13.9414 9.8399 13.8247C9.71857 13.7081 9.64157 13.5517 9.6089 13.3557H9.5669C9.5109 13.5937 9.38723 13.7757 9.1959 13.9017C9.00457 14.0231 8.7689 14.0837 8.4889 14.0837C8.12023 14.0837 7.8379 13.9857 7.6419 13.7897C7.4459 13.5937 7.3479 13.3347 7.3479 13.0127C7.3479 12.6254 7.4879 12.3384 7.7679 12.1517C8.05257 11.9604 8.43757 11.8647 8.9229 11.8647H9.5039V11.6337C9.5039 11.4564 9.45723 11.3164 9.3639 11.2137C9.27057 11.1064 9.11423 11.0527 8.8949 11.0527C8.68957 11.0527 8.52623 11.0971 8.4049 11.1857C8.28357 11.2744 8.18323 11.3747 8.1039 11.4867L7.4879 10.9407C7.63723 10.7214 7.8239 10.5511 8.0479 10.4297C8.27657 10.3037 8.58457 10.2407 8.9719 10.2407C9.49457 10.2407 9.88657 10.3551 10.1479 10.5837C10.4092 10.8124 10.5399 11.1461 10.5399 11.5847V13.1947H10.8829V13.9997H10.3089ZM8.8739 13.3627C9.04657 13.3627 9.19357 13.3254 9.3149 13.2507C9.4409 13.1761 9.5039 13.0547 9.5039 12.8867V12.4527H8.9999C8.5939 12.4527 8.3909 12.5904 8.3909 12.8657V12.9707C8.3909 13.1061 8.4329 13.2064 8.5169 13.2717C8.6009 13.3324 8.7199 13.3627 8.8739 13.3627Z" fill="#7512FF"/>
<path d="M3.48291 8.81982H4.51891V11.8788H4.56091L5.01591 11.1998L5.75091 10.3248H6.89891L5.67391 11.7318L7.03891 13.9998H5.80691L4.98091 12.4458L4.51891 12.9638V13.9998H3.48291V8.81982Z" fill="#7512FF"/>
</svg>
