<svg width="24" height="24" viewBox="0 0 24 24" fill="none" xmlns="http://www.w3.org/2000/svg">
<g id="sns icons">
<path id="Vector (Stroke)" fill-rule="evenodd" clip-rule="evenodd" d="M12.9626 1.8305C15.4033 -0.610167 19.4391 -0.610167 21.8797 1.8305C24.3204 4.27117 24.3204 8.30694 21.8797 10.7476L17.4255 15.2018C15.3055 17.4974 11.8557 17.618 9.47901 16.0336C8.64855 15.4799 8.42414 14.3579 8.97778 13.5274C9.53143 12.697 10.6535 12.4726 11.4839 13.0262C12.5652 13.747 14.0084 13.5877 14.7827 12.7359C14.802 12.7147 14.8218 12.694 14.8421 12.6737L19.324 8.19184C20.3531 7.16269 20.3531 5.41542 19.324 4.38627C18.3316 3.39396 16.6717 3.35843 15.6316 4.27969L15.455 4.54456C14.9014 5.37503 13.7793 5.59943 12.9489 5.04579C12.1184 4.49215 11.894 3.37012 12.4476 2.53966L12.7368 2.10593C12.8028 2.00691 12.8784 1.91465 12.9626 1.8305Z" fill="#7512FF"/>
<path id="Vector (Stroke)_2" fill-rule="evenodd" clip-rule="evenodd" d="M6.37462 8.56674C8.50313 6.63174 11.7788 6.12377 14.3131 8.02448C15.1116 8.62333 15.2734 9.75608 14.6745 10.5546C14.0757 11.353 12.9429 11.5148 12.1444 10.916C11.2202 10.2228 9.89074 10.2831 8.84426 11.2068L4.40641 15.7878L4.38629 15.8083C3.35713 16.8374 3.35713 18.5847 4.38629 19.6139C5.41545 20.643 7.16272 20.643 8.19189 19.6139L9.46978 20.8917L8.19189 19.6138L8.62562 19.1801C9.33138 18.4744 10.4756 18.4744 11.1814 19.1801C11.8872 19.8859 11.8872 21.0301 11.1814 21.7359L10.7477 22.1696C8.30699 24.6103 4.27119 24.6103 1.83051 22.1696C-0.606501 19.7326 -0.610164 15.7053 1.81952 13.2635L6.29227 8.64652C6.31887 8.61907 6.34633 8.59246 6.37462 8.56674Z" fill="#7512FF"/>
</g>
</svg>
