<svg width="61" height="19" viewBox="0 0 61 19" fill="none" xmlns="http://www.w3.org/2000/svg">
<g id="Layer 1">
<g id="Group">
<path id="Vector" d="M13.7402 7.52285L10.9156 7.21631L11.5333 1.65527L14.5284 2.47525L13.7402 7.52285Z" fill="#BB2200"/>
<path id="Vector_2" d="M10.4299 10.8282L10.7606 8.08472L4.41125 8.86638L5.34673 11.8066L10.4299 10.8282Z" fill="#BB2200"/>
<path id="Vector_3" d="M5.46038 11.7914L2.71337 11.0404L2.47046 1.72435L5.18645 1.30542L5.46038 11.7914Z" fill="#FF3D12"/>
<path id="Vector_4" d="M3.42407 5.66577L5.07537 2.56211L13.4223 0L14.5284 2.48803L3.42407 5.66577Z" fill="#FF3D12"/>
<path id="Vector_5" d="M25.7386 7.78345L26.3149 4.98378L30.8269 3.5022L31.7702 6.03877L25.7386 7.78345Z" fill="#FF3D12"/>
<path id="Vector_6" d="M31.5582 11.1168L32.8115 8.08472L23.9839 8.86638L24.9194 11.8066L31.5582 11.1168Z" fill="#BB2200"/>
<path id="Vector_7" d="M25.0331 11.7914L22.2861 11.0404L22.0432 1.72435L24.7592 1.30542L25.0331 11.7914Z" fill="#FF3D12"/>
<path id="Vector_8" d="M34.3052 9.62261L31.5582 11.117L31.3153 1.4918L34.0339 1.07031L34.3052 9.62261Z" fill="#FF3D12"/>
<path id="Vector_9" d="M37.7732 2.82012L38.0833 5.61214L43.7065 5.00162L42.8796 2.04102L37.7732 2.82012Z" fill="#BB2200"/>
<path id="Vector_10" d="M39.6493 17.8505L42.7891 16.2182L45.3836 3.13432L42.864 2.04102L39.6493 17.8505Z" fill="#FF3D12"/>
<path id="Vector_11" d="M45.3837 2.82012L45.6938 5.61214L51.317 5.00162L50.49 2.04102L45.3837 2.82012Z" fill="#BB2200"/>
<path id="Vector_12" d="M47.2598 17.8505L50.3996 16.2182L52.9915 3.13432L50.4745 2.04102L47.2598 17.8505Z" fill="#FF3D12"/>
<g id="Group_2">
<path id="Vector_13" d="M35.7368 17.3577L18.9266 19.0002L19.3298 16.6118L35.7368 15.1455V17.3577Z" fill="#FF3D12"/>
<path id="Vector_14" d="M27.9352 16.7011L25.3484 16.1238L26.687 13.1555L29.3513 13.5642L27.9352 16.7011Z" fill="#FF3D12"/>
</g>
<g id="Group_3">
<path id="Vector_15" d="M16.8076 17.3577L0 19.0002L0.403135 16.6118L16.8076 15.1455V17.3577Z" fill="#FF3D12"/>
<path id="Vector_16" d="M9.00597 16.7011L6.41919 16.1238L7.76039 13.1555L10.4247 13.5642L9.00597 16.7011Z" fill="#FF3D12"/>
</g>
<path id="Vector_17" d="M55.5809 0.258057L53.9219 19.0001L56.3381 18.5505L57.8188 0.258057H55.5809Z" fill="#FF3D12"/>
<path id="Vector_18" d="M58.1471 6.57004L56.78 9.31608L61 8.7822L60.1757 6.35547L58.1471 6.57004Z" fill="#FF3D12"/>
</g>
</g>
</svg>
