<svg width="221" height="42" viewBox="0 0 221 42" fill="none" xmlns="http://www.w3.org/2000/svg">
<rect x="1" y="1" width="219" height="40" fill="#FFEFEC"/>
<rect x="1" y="1" width="219" height="40" stroke="#FF3D12"/>
<path fill-rule="evenodd" clip-rule="evenodd" d="M37.66 21.1932C37.66 20.5905 37.6059 20.011 37.5055 19.4546H29.5V22.7425H34.0745C33.8775 23.805 33.2786 24.7053 32.3784 25.308V27.4407H35.1255C36.7327 25.961 37.66 23.7819 37.66 21.1932Z" fill="#4285F4"/>
<path fill-rule="evenodd" clip-rule="evenodd" d="M29.5 29.4997C31.795 29.4997 33.7191 28.7386 35.1254 27.4404L32.3784 25.3077C31.6172 25.8177 30.6436 26.1191 29.5 26.1191C27.2861 26.1191 25.4122 24.6238 24.7438 22.6147H21.9041V24.817C23.3027 27.595 26.1772 29.4997 29.5 29.4997Z" fill="#34A853"/>
<path fill-rule="evenodd" clip-rule="evenodd" d="M24.7439 22.6149C24.5739 22.1049 24.4773 21.5601 24.4773 20.9999C24.4773 20.4397 24.5739 19.8949 24.7439 19.3849V17.1826H21.9041C21.3284 18.3301 21 19.6283 21 20.9999C21 22.3715 21.3284 23.6697 21.9041 24.8172L24.7439 22.6149Z" fill="#FBBC05"/>
<path fill-rule="evenodd" clip-rule="evenodd" d="M29.5 15.8807C30.7479 15.8807 31.8684 16.3095 32.7493 17.1518L35.1872 14.7139C33.7152 13.3423 31.7911 12.5 29.5 12.5C26.1772 12.5 23.3027 14.4048 21.9041 17.1827L24.7438 19.385C25.4122 17.3759 27.2861 15.8807 29.5 15.8807Z" fill="#EA4335"/>
<path d="M74.6428 24.804H74.5788C74.4615 25.348 74.1415 25.8013 73.6188 26.164C73.1068 26.516 72.4241 26.692 71.5708 26.692C70.9095 26.692 70.2961 26.5693 69.7308 26.324C69.1655 26.068 68.6748 25.7 68.2588 25.22C67.8535 24.7293 67.5335 24.1267 67.2988 23.412C67.0748 22.6867 66.9628 21.8547 66.9628 20.916C66.9628 19.988 67.0801 19.1667 67.3148 18.452C67.5495 17.7267 67.8801 17.1187 68.3068 16.628C68.7335 16.1373 69.2455 15.7693 69.8428 15.524C70.4401 15.268 71.1068 15.14 71.8428 15.14C72.8455 15.14 73.6935 15.364 74.3868 15.812C75.0801 16.2493 75.6188 16.8627 76.0028 17.652L74.5308 18.516C74.3175 17.9933 73.9868 17.572 73.5388 17.252C73.0908 16.9213 72.5255 16.756 71.8428 16.756C70.9575 16.756 70.2428 17.0387 69.6988 17.604C69.1655 18.1693 68.8988 18.9693 68.8988 20.004V21.828C68.8988 22.8627 69.1655 23.6627 69.6988 24.228C70.2428 24.7933 70.9575 25.076 71.8428 25.076C72.1948 25.076 72.5308 25.0333 72.8508 24.948C73.1708 24.852 73.4481 24.7187 73.6828 24.548C73.9281 24.3667 74.1201 24.148 74.2588 23.892C74.4081 23.6253 74.4828 23.316 74.4828 22.964V22.1H72.1788V20.548H76.2268V26.5H74.6428V24.804ZM82.0361 26.692C81.4601 26.692 80.9321 26.5907 80.4521 26.388C79.9827 26.1853 79.5827 25.8973 79.2521 25.524C78.9214 25.14 78.6654 24.6813 78.4841 24.148C78.3027 23.604 78.2121 23.0013 78.2121 22.34C78.2121 21.6787 78.3027 21.0813 78.4841 20.548C78.6654 20.004 78.9214 19.5453 79.2521 19.172C79.5827 18.788 79.9827 18.4947 80.4521 18.292C80.9321 18.0893 81.4601 17.988 82.0361 17.988C82.6121 17.988 83.1347 18.0893 83.6041 18.292C84.0841 18.4947 84.4894 18.788 84.8201 19.172C85.1507 19.5453 85.4067 20.004 85.5881 20.548C85.7694 21.0813 85.8601 21.6787 85.8601 22.34C85.8601 23.0013 85.7694 23.604 85.5881 24.148C85.4067 24.6813 85.1507 25.14 84.8201 25.524C84.4894 25.8973 84.0841 26.1853 83.6041 26.388C83.1347 26.5907 82.6121 26.692 82.0361 26.692ZM82.0361 25.252C82.6334 25.252 83.1134 25.0707 83.4761 24.708C83.8387 24.3347 84.0201 23.78 84.0201 23.044V21.636C84.0201 20.9 83.8387 20.3507 83.4761 19.988C83.1134 19.6147 82.6334 19.428 82.0361 19.428C81.4387 19.428 80.9587 19.6147 80.5961 19.988C80.2334 20.3507 80.0521 20.9 80.0521 21.636V23.044C80.0521 23.78 80.2334 24.3347 80.5961 24.708C80.9587 25.0707 81.4387 25.252 82.0361 25.252ZM91.2273 26.692C90.6513 26.692 90.1233 26.5907 89.6433 26.388C89.174 26.1853 88.774 25.8973 88.4433 25.524C88.1126 25.14 87.8566 24.6813 87.6753 24.148C87.494 23.604 87.4033 23.0013 87.4033 22.34C87.4033 21.6787 87.494 21.0813 87.6753 20.548C87.8566 20.004 88.1126 19.5453 88.4433 19.172C88.774 18.788 89.174 18.4947 89.6433 18.292C90.1233 18.0893 90.6513 17.988 91.2273 17.988C91.8033 17.988 92.326 18.0893 92.7953 18.292C93.2753 18.4947 93.6806 18.788 94.0113 19.172C94.342 19.5453 94.598 20.004 94.7793 20.548C94.9606 21.0813 95.0513 21.6787 95.0513 22.34C95.0513 23.0013 94.9606 23.604 94.7793 24.148C94.598 24.6813 94.342 25.14 94.0113 25.524C93.6806 25.8973 93.2753 26.1853 92.7953 26.388C92.326 26.5907 91.8033 26.692 91.2273 26.692ZM91.2273 25.252C91.8246 25.252 92.3046 25.0707 92.6673 24.708C93.03 24.3347 93.2113 23.78 93.2113 23.044V21.636C93.2113 20.9 93.03 20.3507 92.6673 19.988C92.3046 19.6147 91.8246 19.428 91.2273 19.428C90.63 19.428 90.15 19.6147 89.7873 19.988C89.4246 20.3507 89.2433 20.9 89.2433 21.636V23.044C89.2433 23.78 89.4246 24.3347 89.7873 24.708C90.15 25.0707 90.63 25.252 91.2273 25.252ZM104.451 27.284C104.451 28.148 104.12 28.7987 103.459 29.236C102.797 29.6733 101.72 29.892 100.227 29.892C99.5439 29.892 98.9626 29.844 98.4826 29.748C98.0132 29.6627 97.6239 29.5347 97.3146 29.364C97.0159 29.1933 96.7972 28.9853 96.6586 28.74C96.5199 28.4947 96.4506 28.212 96.4506 27.892C96.4506 27.4333 96.5732 27.076 96.8186 26.82C97.0746 26.564 97.4266 26.388 97.8746 26.292V26.116C97.2452 25.9133 96.9306 25.4867 96.9306 24.836C96.9306 24.4093 97.0746 24.084 97.3626 23.86C97.6506 23.6253 97.9972 23.46 98.4026 23.364V23.3C97.9119 23.0653 97.5332 22.74 97.2666 22.324C97.0106 21.8973 96.8826 21.4013 96.8826 20.836C96.8826 19.9827 97.1652 19.2947 97.7306 18.772C98.3066 18.2493 99.1279 17.988 100.195 17.988C100.781 17.988 101.283 18.0733 101.699 18.244V18.02C101.699 17.6467 101.784 17.3587 101.955 17.156C102.136 16.9427 102.413 16.836 102.787 16.836H104.067V18.244H102.371V18.58C102.744 18.8253 103.032 19.1453 103.235 19.54C103.437 19.924 103.539 20.356 103.539 20.836C103.539 21.6787 103.251 22.3613 102.675 22.884C102.099 23.396 101.277 23.652 100.211 23.652C99.8052 23.652 99.4426 23.6093 99.1226 23.524C98.9092 23.5987 98.7226 23.7053 98.5626 23.844C98.4026 23.972 98.3226 24.1427 98.3226 24.356C98.3226 24.58 98.4239 24.74 98.6266 24.836C98.8292 24.932 99.1172 24.98 99.4906 24.98H101.539C102.563 24.98 103.304 25.188 103.763 25.604C104.221 26.0093 104.451 26.5693 104.451 27.284ZM102.819 27.476C102.819 27.188 102.707 26.9587 102.483 26.788C102.269 26.6173 101.875 26.532 101.299 26.532H98.4826C98.0986 26.756 97.9066 27.076 97.9066 27.492C97.9066 27.8333 98.0399 28.1053 98.3066 28.308C98.5839 28.5213 99.0479 28.628 99.6986 28.628H100.787C102.141 28.628 102.819 28.244 102.819 27.476ZM100.211 22.388C100.723 22.388 101.117 22.276 101.395 22.052C101.683 21.8173 101.827 21.46 101.827 20.98V20.66C101.827 20.18 101.683 19.828 101.395 19.604C101.117 19.3693 100.723 19.252 100.211 19.252C99.6986 19.252 99.2986 19.3693 99.0106 19.604C98.7332 19.828 98.5946 20.18 98.5946 20.66V20.98C98.5946 21.46 98.7332 21.8173 99.0106 22.052C99.2986 22.276 99.6986 22.388 100.211 22.388ZM107.684 26.5C107.087 26.5 106.639 26.3507 106.34 26.052C106.052 25.7427 105.908 25.316 105.908 24.772V14.66H107.652V25.076H108.804V26.5H107.684ZM113.895 26.692C113.297 26.692 112.764 26.5907 112.295 26.388C111.825 26.1853 111.425 25.8973 111.095 25.524C110.764 25.14 110.508 24.6813 110.327 24.148C110.156 23.604 110.071 23.0013 110.071 22.34C110.071 21.6787 110.156 21.0813 110.327 20.548C110.508 20.004 110.764 19.5453 111.095 19.172C111.425 18.788 111.825 18.4947 112.295 18.292C112.764 18.0893 113.297 17.988 113.895 17.988C114.503 17.988 115.036 18.0947 115.495 18.308C115.964 18.5213 116.353 18.82 116.663 19.204C116.972 19.5773 117.201 20.0147 117.351 20.516C117.511 21.0173 117.591 21.556 117.591 22.132V22.788H111.879V23.06C111.879 23.7 112.065 24.228 112.439 24.644C112.823 25.0493 113.367 25.252 114.071 25.252C114.583 25.252 115.015 25.14 115.367 24.916C115.719 24.692 116.017 24.388 116.263 24.004L117.287 25.012C116.977 25.524 116.529 25.9347 115.943 26.244C115.356 26.5427 114.673 26.692 113.895 26.692ZM113.895 19.348C113.596 19.348 113.319 19.4013 113.063 19.508C112.817 19.6147 112.604 19.764 112.423 19.956C112.252 20.148 112.119 20.3773 112.023 20.644C111.927 20.9107 111.879 21.204 111.879 21.524V21.636H115.751V21.476C115.751 20.836 115.585 20.324 115.255 19.94C114.924 19.5453 114.471 19.348 113.895 19.348ZM132.129 25.236V26.596H119.009V25.236H124.769V22.868H120.881V18.26H128.625V16.308H120.833V14.964H130.257V19.556H122.513V21.524H130.641V22.868H126.385V25.236H132.129ZM150.496 25.236V26.596H137.376V25.236H143.136V22.868H139.248V18.26H146.992V16.308H139.2V14.964H148.624V19.556H140.88V21.524H149.008V22.868H144.752V25.236H150.496ZM161.562 16.676H153.466V15.3H163.162V16.516C163.162 19.0867 162.922 21.4867 162.442 23.716L160.874 23.46C161.322 21.348 161.551 19.0867 161.562 16.676ZM164.922 25.22V26.596H151.802V25.22H164.922ZM178.34 14.132V24.708H176.724V14.132H178.34ZM166.628 18.532C166.628 17.764 166.788 17.1027 167.108 16.548C167.428 15.9827 167.87 15.5507 168.436 15.252C169.001 14.9533 169.652 14.804 170.388 14.804C171.124 14.804 171.774 14.9533 172.34 15.252C172.916 15.5507 173.364 15.9827 173.684 16.548C174.004 17.1027 174.164 17.764 174.164 18.532C174.164 19.2893 174.004 19.9507 173.684 20.516C173.364 21.0707 172.916 21.4973 172.34 21.796C171.774 22.0947 171.124 22.244 170.388 22.244C169.652 22.244 169.001 22.0947 168.436 21.796C167.87 21.4973 167.428 21.0707 167.108 20.516C166.788 19.9507 166.628 19.2893 166.628 18.532ZM172.436 18.916V18.148C172.436 17.54 172.249 17.0547 171.876 16.692C171.502 16.3293 171.006 16.148 170.388 16.148C169.769 16.148 169.273 16.3293 168.9 16.692C168.526 17.0547 168.34 17.54 168.34 18.148V18.916C168.34 19.524 168.526 20.0093 168.9 20.372C169.273 20.7347 169.769 20.916 170.388 20.916C171.006 20.916 171.502 20.7347 171.876 20.372C172.249 20.0093 172.436 19.524 172.436 18.916ZM169.268 27.396V23.556H170.884V27.124H178.628V28.452H170.308C169.966 28.452 169.705 28.3613 169.524 28.18C169.353 27.9987 169.268 27.7373 169.268 27.396Z" fill="#121212"/>
</svg>
