<svg width="1020" height="1032" viewBox="0 0 1020 1032" fill="none" xmlns="http://www.w3.org/2000/svg">
<g opacity="0.9">
<g filter="url(#filter0_d_3884_13014)">
<path d="M524.172 229.348L700.172 253.848L876.673 620.848L705.673 608.848L524.172 229.348Z" fill="#BB2200"/>
</g>
<g filter="url(#filter1_d_3884_13014)">
<path d="M1130.17 -233.651L1272.67 -165.651L876.671 620.849L705.671 608.849L1130.17 -233.651Z" fill="#FF3D12"/>
</g>
<g filter="url(#filter2_d_3884_13014)">
<path d="M192.271 1042.52L66.3871 960.951L524.172 229.349L700.172 253.849L192.271 1042.52Z" fill="#FF3D12"/>
</g>
<g clip-path="url(#clip0_3884_13014)">
<path d="M256.317 769.89L247.398 780.768L225.783 763.028L237.314 752.844L256.317 769.89Z" fill="#FBFBFB"/>
<path d="M261.208 792.641L250.615 783.781L236.722 812.249L251.562 816.394L261.208 792.641Z" fill="#FBFBFB"/>
<path d="M251.805 815.88L241.234 825.223L201.57 800.804L207.159 788.396L251.805 815.88Z" fill="#FBFBFB"/>
<path d="M220.651 807.606L212.121 792.287L223.96 750.675L237.367 752.879L220.651 807.606Z" fill="#FBFBFB"/>
<path d="M289.847 720.837L279.682 710.806L285.677 688.049L298.848 691.06L289.847 720.837Z" fill="#FBFBFB"/>
<path d="M319.538 705.799L310.231 692.325L289.638 731.071L304.478 735.216L319.538 705.799Z" fill="#FBFBFB"/>
<path d="M304.721 734.702L294.15 744.045L254.486 719.626L260.075 707.218L304.721 734.702Z" fill="#FBFBFB"/>
<path d="M320.709 690.328L319.539 705.8L278.581 680.537L284.166 668.112L320.709 690.328Z" fill="#FBFBFB"/>
<path d="M301.602 657.378L314.131 663.713L326.777 638.724L312.145 634.074L301.602 657.378Z" fill="#FBFBFB"/>
<path d="M369.607 690.62L371.261 673.143L323.493 626.672L312.103 634.138L369.607 690.62Z" fill="#FBFBFB"/>
<path d="M322.177 625.814L334.706 632.148L347.352 607.16L332.72 602.509L322.177 625.814Z" fill="#FBFBFB"/>
<path d="M390.182 659.056L391.836 641.579L344.061 595.118L332.679 602.573L390.182 659.056Z" fill="#FBFBFB"/>
<path d="M356.966 705.502L318.395 779.704L309.485 771.514L347.703 699.464L356.966 705.502Z" fill="#FBFBFB"/>
<path d="M333.124 736.066L323.713 745.219L314.904 731.565L323.819 721.631L333.124 736.066Z" fill="#FBFBFB"/>
<path d="M305.789 784.011L267.226 858.202L258.315 850.012L296.526 777.973L305.789 784.011Z" fill="#FBFBFB"/>
<path d="M281.947 814.576L272.537 823.728L263.734 810.064L272.649 800.13L281.947 814.576Z" fill="#FBFBFB"/>
<path d="M339.019 576.529L413.007 634.564L417.657 623.316L345.069 567.248L339.019 576.529Z" fill="#FBFBFB"/>
<path d="M372.385 583.113L380.187 596.278L389.361 577.318L376.971 574.114L372.385 583.113Z" fill="#FBFBFB"/>
</g>
<path d="M413.438 467.435L416.063 469.045L403.97 488.76L401.344 487.149L406.425 478.867L404.73 477.828L401.421 483.222L393.784 478.536L402.407 464.479L405.009 466.075L398.347 476.934L400.782 478.427L407.516 467.449L410.118 469.045L406.677 474.653L408.372 475.693L413.438 467.435ZM419.966 475.053C421.287 475.863 421.938 477.139 421.921 478.88C421.914 480.606 421.207 482.614 419.802 484.905C418.396 487.197 416.921 488.744 415.377 489.549C413.832 490.353 412.399 490.35 411.079 489.54C409.774 488.74 409.13 487.469 409.147 485.727C409.164 483.986 409.876 481.97 411.281 479.678C412.687 477.387 414.157 475.847 415.692 475.059C417.236 474.254 418.661 474.252 419.966 475.053ZM417.826 478.273C417.333 477.971 416.735 478.053 416.032 478.52C415.324 478.961 414.559 479.85 413.74 481.186C412.92 482.523 412.469 483.615 412.387 484.463C412.289 485.3 412.487 485.871 412.98 486.173L413.266 486.349C413.744 486.642 414.334 486.555 415.036 486.088C415.754 485.631 416.524 484.734 417.344 483.397C418.154 482.077 418.6 480.992 418.682 480.145C418.78 479.307 418.59 478.742 418.112 478.449L417.826 478.273ZM427.617 445.071L425.669 448.245L436.505 454.892L434.543 458.091L413.349 445.089L415.311 441.891L422.996 446.606L424.943 443.431L427.617 445.071ZM420.516 452.738C422.918 454.211 424.413 455.862 425 457.689C425.581 459.491 425.335 461.267 424.261 463.017C423.178 464.784 421.696 465.824 419.817 466.138C417.932 466.427 415.788 465.835 413.385 464.361C410.983 462.887 409.491 461.249 408.91 459.447C408.323 457.62 408.571 455.823 409.654 454.057C410.728 452.307 412.208 451.287 414.093 450.998C415.972 450.684 418.113 451.264 420.516 452.738ZM416.909 455.19C415.923 454.584 415.035 454.336 414.246 454.443C413.442 454.541 412.81 454.964 412.351 455.712C411.893 456.459 411.797 457.222 412.065 457.999C412.326 458.751 412.95 459.429 413.937 460.035L416.992 461.909C417.978 462.514 418.874 462.768 419.678 462.67C420.477 462.546 421.105 462.111 421.564 461.363C422.023 460.615 422.122 459.865 421.86 459.114C421.583 458.352 420.951 457.669 419.964 457.064L416.909 455.19ZM429.522 418.726L450.716 431.727L448.739 434.949L427.545 421.948L429.522 418.726ZM439.348 431.783L442.16 432.983C441.54 434.529 440.83 436.097 440.03 437.687C439.214 439.267 438.113 441.187 436.727 443.446L435.307 445.761L426.285 440.227L430.487 433.377L427.456 431.518L423.225 438.415L420.551 436.775L426.745 426.68L435.074 431.789L430.872 438.639L434.643 440.953C435.769 439.081 436.692 437.435 437.41 436.014C438.128 434.593 438.774 433.183 439.348 431.783ZM446.914 390.373L468.108 403.375L466.132 406.597L444.938 393.595L446.914 390.373ZM450.522 405.43C450.717 405.112 451.033 404.9 451.469 404.796L458.088 403.699L458.647 407.392L451.52 408.408C451.34 408.451 451.221 408.52 451.163 408.615C451.104 408.711 451.098 408.828 451.145 408.966C452.05 410.703 452.911 413.137 453.729 416.266L450.23 417.471C449.637 414.654 448.844 412.394 447.853 410.691C446.855 408.962 445.513 407.58 443.826 406.545L443.373 406.267L440.81 410.444L438.137 408.804L445.209 397.276L447.882 398.916L445.349 403.045L445.922 403.397C447.72 404.5 449.165 405.857 450.257 407.468L450.401 407.393L450.319 406.456C450.288 406.042 450.356 405.7 450.522 405.43ZM471.19 378.966L458.636 371.265L460.583 368.091L477.696 378.589L475.749 381.763L473.529 380.401L470.806 384.841L468.467 383.406L471.19 378.966ZM454.481 387.998C453.669 387.501 453.103 386.836 452.781 386.003C452.454 385.145 452.376 384.2 452.55 383.168C452.733 382.119 453.161 381.046 453.835 379.948C454.508 378.851 455.266 377.99 456.108 377.368C456.959 376.73 457.837 376.37 458.74 376.289C459.638 376.183 460.492 376.379 461.304 376.876C462.131 377.384 462.709 378.067 463.036 378.925C463.374 379.767 463.451 380.712 463.268 381.76C463.094 382.793 462.671 383.858 461.997 384.956C461.324 386.054 460.561 386.922 459.71 387.56C458.868 388.182 457.991 388.542 457.077 388.639C456.174 388.719 455.308 388.506 454.481 387.998ZM456.586 384.888C457.079 385.191 457.596 385.223 458.136 384.985C458.686 384.731 459.186 384.238 459.635 383.506C460.084 382.774 460.292 382.114 460.259 381.524C460.236 380.919 459.978 380.465 459.485 380.162L459.246 380.016C458.737 379.704 458.208 379.674 457.658 379.928C457.117 380.166 456.623 380.651 456.174 381.383C455.725 382.115 455.512 382.784 455.535 383.389C455.567 383.978 455.838 384.429 456.347 384.742L456.586 384.888ZM464.472 388.74C463.628 390.259 462.62 391.973 461.449 393.882L458.748 392.554C460.418 389.834 461.963 387.19 463.384 384.624C464.815 382.041 465.907 379.886 466.66 378.158L469.222 379.336C468.488 381.032 467.479 383.106 466.193 385.559L469.654 387.682L467.765 390.761L464.472 388.74ZM479.893 379.345L482.47 380.926L474.74 393.528C473.91 394.88 472.819 395.142 471.467 394.312L467.791 392.057L469.738 388.883L472.865 390.801L479.893 379.345ZM483.492 354.039L474.737 368.312L464.975 362.323L466.923 359.149L469.333 360.628L474.194 352.704L471.783 351.225L473.731 348.051L483.492 354.039ZM476.819 354.314L471.959 362.238L474.059 363.527L478.92 355.603L476.819 354.314ZM489.72 354.115L484.654 362.373L491.695 366.692L489.733 369.89L482.692 365.571L477.626 373.829L474.929 372.174L487.023 352.46L489.72 354.115ZM487.423 324.338L508.617 337.339L506.655 340.537L495.319 333.583L493.357 336.781L490.684 335.141L492.645 331.943L485.461 327.536L487.423 324.338ZM496.732 338.293L499.52 339.478C498.939 340.961 498.268 342.465 497.507 343.991C496.74 345.492 495.697 347.316 494.38 349.464L493.033 351.66L478.307 342.626L484.354 332.769L486.979 334.379L482.879 341.062L486.054 343.01L489.978 336.613L492.579 338.209L488.655 344.605L492.378 346.889C493.417 345.161 494.266 343.634 494.925 342.309C495.585 340.984 496.187 339.645 496.732 338.293ZM438.917 491.014L431.904 502.447L429.278 500.836L438.224 486.253L439.608 487.102C441.582 488.313 443.617 489.868 445.714 491.768L443.434 494.574C442.309 493.445 440.803 492.259 438.917 491.014ZM448.785 489.118L451.41 490.729L439.317 510.443L436.691 508.832L441.142 501.577L437.443 499.308L439.405 496.109L443.104 498.379L448.785 489.118ZM455.581 496.835C456.472 497.382 457.076 498.146 457.393 499.129C457.726 500.122 457.738 501.279 457.431 502.601C457.149 503.918 456.539 505.339 455.602 506.867C454.665 508.394 453.669 509.59 452.614 510.454C451.574 511.327 450.537 511.84 449.501 511.993C448.482 512.156 447.526 511.964 446.635 511.418C445.744 510.871 445.14 510.106 444.823 509.124C444.491 508.131 444.478 506.974 444.785 505.651C445.077 504.319 445.691 502.889 446.628 501.362C447.565 499.834 448.557 498.647 449.602 497.799C450.642 496.926 451.679 496.412 452.715 496.259C453.735 496.096 454.69 496.288 455.581 496.835ZM453.417 500.041C452.86 499.699 452.202 499.755 451.442 500.209C450.692 500.646 449.907 501.533 449.087 502.87C448.257 504.222 447.812 505.34 447.752 506.223C447.702 507.09 447.956 507.695 448.513 508.036L448.823 508.227C449.364 508.558 450.014 508.498 450.774 508.044C451.534 507.59 452.324 506.695 453.144 505.359C453.964 504.022 454.399 502.921 454.449 502.053C454.509 501.17 454.269 500.563 453.728 500.231L453.417 500.041ZM456.806 482.522C456.113 483.652 455.275 484.517 454.293 485.119C453.295 485.711 452.215 485.99 451.053 485.957C449.901 485.907 448.736 485.521 447.559 484.799C446.381 484.076 445.517 483.218 444.967 482.223C444.41 481.203 444.177 480.118 444.269 478.97C444.344 477.812 444.728 476.668 445.421 475.538C446.036 474.536 446.771 473.749 447.625 473.178C448.489 472.591 449.419 472.253 450.415 472.163L453.109 467.772L449.911 465.81L451.873 462.612L467.721 472.333L465.759 475.532L460.341 472.208L457.603 476.671C457.943 477.581 458.044 478.54 457.906 479.551C457.768 480.561 457.401 481.551 456.806 482.522ZM454.228 480.941C454.677 480.209 454.827 479.501 454.677 478.818C454.52 478.109 454.052 477.515 453.273 477.037L451.912 476.202C451.133 475.724 450.399 475.581 449.712 475.772C449.019 475.939 448.448 476.388 447.999 477.119C447.54 477.867 447.389 478.596 447.545 479.305C447.696 479.988 448.16 480.569 448.94 481.047L450.301 481.882C451.08 482.36 451.817 482.516 452.51 482.35C453.197 482.158 453.77 481.689 454.228 480.941ZM453.608 472.742C453.939 472.88 454.28 473.056 454.63 473.271C454.996 473.495 455.348 473.744 455.684 474.016L457.763 470.627L455.687 469.353L453.608 472.742ZM471.12 473.86L473.745 475.471L466.191 487.786C465.361 489.139 464.27 489.4 462.917 488.57L457.452 485.218L459.428 481.996L464.297 484.982L471.12 473.86ZM469.514 433.853L490.708 446.855L488.864 449.862L467.67 436.861L469.514 433.853ZM465.345 441.347L467.116 438.459L487.427 450.919L485.655 453.807L477.779 448.975L476.491 451.075C477.354 452.131 477.83 453.211 477.919 454.317C478.017 455.406 477.749 456.468 477.114 457.502C476.168 459.046 474.816 459.892 473.06 460.041C471.305 460.19 469.249 459.543 466.894 458.098C464.523 456.644 463.01 455.113 462.353 453.506C461.707 451.883 461.861 450.291 462.818 448.732C463.413 447.762 464.169 447.065 465.086 446.641C466.012 446.202 467.075 446.077 468.274 446.265L469.664 443.997L465.345 441.347ZM469.101 450.057C468.226 449.52 467.45 449.285 466.774 449.352C466.091 449.393 465.584 449.685 465.252 450.226C464.911 450.782 464.871 451.382 465.134 452.025C465.39 452.642 465.956 453.219 466.831 453.756L470.817 456.201C471.692 456.738 472.471 456.986 473.153 456.945C473.829 456.878 474.338 456.566 474.68 456.009C475.012 455.468 475.05 454.889 474.793 454.271C474.53 453.629 473.962 453.039 473.086 452.502L469.101 450.057ZM475.249 447.423L472.194 445.549L471.199 447.172C471.731 447.411 472.331 447.736 473 448.145C473.334 448.35 473.762 448.635 474.283 448.998L475.249 447.423ZM483.008 411.858L504.202 424.859L502.328 427.914L491.42 421.223L490.483 422.75L500.818 429.09L498.958 432.121L478.647 419.661L480.507 416.63L487.858 421.14L488.795 419.612L481.134 414.913L483.008 411.858ZM473.981 431.285L479.5 422.287L492.723 430.398L487.203 439.396L473.981 431.285ZM486.5 434.76L488.271 431.872L480.204 426.923L478.432 429.811L486.5 434.76ZM507.884 394.545L506.186 397.314L517.021 403.961L515.089 407.111L493.895 394.11L495.827 390.959L503.513 395.674L505.211 392.905L507.884 394.545ZM494.766 405.649C496.277 406.576 497.499 407.566 498.43 408.619C499.345 409.662 500.084 410.794 500.648 412.016C501.213 413.239 501.787 414.784 502.37 416.653L499.059 417.874C498.588 416.249 498.121 414.923 497.657 413.894C497.203 412.849 496.603 411.9 495.856 411.047C495.109 410.195 494.13 409.398 492.921 408.656L491.728 407.924L489.927 410.859L487.302 409.249L490.947 403.306L494.766 405.649ZM491.43 402.518L494.71 397.172L498.863 399.72C500.486 400.715 501.802 401.764 502.813 402.866C503.823 403.967 504.65 405.153 505.294 406.424C505.938 407.695 506.63 409.335 507.369 411.343L504.037 412.65C503.475 410.925 502.919 409.511 502.369 408.408C501.83 407.288 501.139 406.273 500.296 405.362C499.447 404.425 498.355 403.547 497.018 402.727L495.491 401.79L494.056 404.129L491.43 402.518ZM509.701 368.343L530.895 381.344L528.919 384.566L507.725 371.565L509.701 368.343ZM513.309 383.4C513.504 383.081 513.82 382.87 514.256 382.766L520.875 381.668L521.434 385.362L514.307 386.377C514.127 386.42 514.008 386.49 513.95 386.585C513.891 386.681 513.885 386.797 513.932 386.935C514.837 388.673 515.698 391.107 516.516 394.236L513.018 395.441C512.424 392.624 511.632 390.364 510.64 388.661C509.642 386.932 508.3 385.55 506.613 384.515L506.16 384.237L503.597 388.414L500.924 386.774L507.996 375.246L510.669 376.886L508.136 381.015L508.709 381.366C510.507 382.469 511.952 383.827 513.044 385.438L513.189 385.363L513.107 384.425C513.075 384.012 513.143 383.67 513.309 383.4ZM482.111 508.741L484.784 510.381L482.852 513.531L489.773 517.777L487.811 520.975L471.486 510.961L473.448 507.763L480.179 511.891L482.111 508.741ZM471.991 517.314L468.067 523.711L465.394 522.071L469.317 515.674L471.991 517.314ZM480.91 527.352C480.256 528.418 479.51 529.242 478.672 529.822C477.844 530.387 477.009 530.696 476.166 530.749C475.333 530.785 474.575 530.594 473.891 530.174C472.538 529.344 471.942 528.157 472.101 526.612L471.91 526.495L470.065 529.503L467.44 527.892L475.287 515.099L477.913 516.71L476.068 519.717L476.259 519.834C477.574 518.976 478.907 518.962 480.26 519.792C480.944 520.212 481.453 520.809 481.788 521.584C482.123 522.358 482.222 523.251 482.084 524.261C481.955 525.256 481.564 526.286 480.91 527.352ZM478.135 525.879L478.34 525.545C478.72 524.925 478.853 524.316 478.737 523.719C478.605 523.113 478.253 522.634 477.68 522.283C477.108 521.931 476.529 521.839 475.945 522.006C475.344 522.164 474.854 522.553 474.473 523.173L474.268 523.507C473.897 524.112 473.77 524.713 473.886 525.309C474.001 525.906 474.354 526.385 474.942 526.746C475.531 527.107 476.118 527.204 476.702 527.037C477.286 526.87 477.764 526.484 478.135 525.879ZM486.258 530.041L492.993 519.062L495.618 520.673L488.151 532.845C487.321 534.197 486.23 534.459 484.878 533.629L480.582 530.994L482.558 527.772L486.258 530.041ZM495.789 499.242L489.406 509.648L478.284 502.825L480.187 499.723L483.361 501.67L485.938 497.469L482.764 495.522L484.667 492.419L488.939 495.04L491.297 491.198L485.712 487.772L487.674 484.573L503.521 494.295L501.559 497.493L493.97 492.837L491.612 496.68L495.789 499.242ZM488.54 499.065L485.963 503.266L488.684 504.935L491.26 500.734L488.54 499.065ZM506.921 495.822L509.546 497.432L501.991 509.748C501.162 511.1 500.07 511.362 498.718 510.532L493.348 507.238L495.324 504.016L500.098 506.944L506.921 495.822ZM501.416 462.172L522.61 475.173L520.736 478.228L499.542 465.227L501.416 462.172ZM497.099 469.904L498.944 466.897L519.255 479.356L517.41 482.364L506.837 475.878L506.061 477.142C507.946 478.496 509.13 479.923 509.611 481.423C510.077 482.913 509.875 484.366 509.006 485.782C508.05 487.341 506.702 488.2 504.962 488.359C503.206 488.508 501.15 487.861 498.796 486.416C496.425 484.962 494.916 483.423 494.269 481.8C493.622 480.177 493.777 478.586 494.734 477.026C495.573 475.658 496.734 474.837 498.216 474.563C499.691 474.264 501.426 474.595 503.421 475.556L504.212 474.267L497.099 469.904ZM501.02 478.452C500.161 477.925 499.403 477.679 498.747 477.714C498.09 477.749 497.596 478.037 497.264 478.578C496.942 479.103 496.909 479.675 497.165 480.292C497.432 480.893 497.994 481.457 498.854 481.984L502.744 484.371C503.603 484.898 504.361 485.144 505.018 485.109C505.684 485.058 506.178 484.77 506.5 484.244C506.832 483.703 506.865 483.132 506.599 482.531C506.333 481.93 505.77 481.366 504.911 480.838L501.02 478.452ZM518.163 464.804L510.697 461.768L506.066 458.928L508.35 455.205L512.981 458.045L519.085 463.301L518.163 464.804ZM524.139 467.485C523.671 468.249 523.159 468.691 522.604 468.81C522.059 468.913 521.532 468.809 521.022 468.497L520.45 468.145C519.94 467.833 519.608 467.41 519.454 466.877C519.308 466.328 519.47 465.672 519.939 464.908C520.407 464.145 520.914 463.711 521.459 463.608C522.014 463.488 522.547 463.585 523.056 463.897L523.629 464.248C524.138 464.561 524.465 464.991 524.61 465.54C524.765 466.073 524.608 466.721 524.139 467.485Z" fill="#FBFBFB"/>
<mask id="mask0_3884_13014" style="mask-type:alpha" maskUnits="userSpaceOnUse" x="394" y="-181" width="817" height="528">
<g clip-path="url(#clip1_3884_13014)">
<path d="M801.976 62.4519L781.384 74.7529L729.089 55.4779L755.936 43.8806L801.976 62.4519Z" fill="#FBFBFB"/>
<path d="M814.841 87.6553L789.204 78.0243L757.74 110.022L793.207 114.313L814.841 87.6553Z" fill="#FBFBFB"/>
<path d="M793.773 113.724L769.176 124.353L673.655 98.0353L686.253 84.1039L793.773 113.724Z" fill="#FBFBFB"/>
<path d="M719.323 105.206L698.248 88.3283L724.104 41.7573L756.065 43.9186L719.323 105.206Z" fill="#FBFBFB"/>
<path d="M878.955 7.11629L854.271 -3.828L867.272 -29.287L898.699 -26.2094L878.955 7.11629Z" fill="#FBFBFB"/>
<path d="M948.651 -10.2667L925.816 -25.0611L878.999 18.5222L914.466 22.8133L948.651 -10.2667Z" fill="#FBFBFB"/>
<path d="M915.032 22.2262L890.434 32.8549L794.913 6.53726L807.512 -7.39411L915.032 22.2262Z" fill="#FBFBFB"/>
<path d="M1037.52 -11.412L949.949 72.0135L928.344 63.0905L1015.19 -17.9309L1037.52 -11.412Z" fill="#FBFBFB"/>
<path d="M982.558 23.1267L960.691 33.5303L939.044 18.5133L959.675 7.26249L982.558 23.1267Z" fill="#FBFBFB"/>
<path d="M920.245 77.0806L832.693 160.494L811.071 151.583L897.92 70.5617L920.245 77.0806Z" fill="#FBFBFB"/>
<path d="M865.286 111.619L843.434 122.011L821.788 106.994L842.402 95.755L865.286 111.619Z" fill="#FBFBFB"/>
<path d="M620.859 169.899L606.762 141.604L480.845 236.619L575.478 281.98L695.232 191.616L681.135 163.321L658.032 180.754L643.961 152.466L620.859 169.899Z" fill="#FBFBFB"/>
<path d="M602.967 222.683L709.177 253.697L537.029 332.28L447.903 296.955L602.967 222.683Z" fill="#FBFBFB"/>
</g>
</mask>
<g mask="url(#mask0_3884_13014)">
<path d="M702.501 253.002L523.673 229.35L436.173 369.35L576.501 445.002L702.501 253.002Z" fill="#FBFBFB"/>
</g>
</g>
<g opacity="0.9">
<g filter="url(#filter3_d_3884_13014)">
<rect x="12.7607" y="-11.707" width="150" height="1416" transform="rotate(-33.2063 12.7607 -11.707)" fill="#7512FF"/>
</g>
<g clip-path="url(#clip2_3884_13014)">
<path d="M218.363 148.463L212.003 135.915L236.95 123.285L241.623 137.943L218.363 148.463Z" fill="#FBFBFB"/>
<path d="M195.571 143.768L207.949 137.645L187.497 113.456L177.722 125.365L195.571 143.768Z" fill="#FBFBFB"/>
<path d="M178.094 125.796L173.804 112.355L212.14 85.9002L221.243 96.0163L178.094 125.796Z" fill="#FBFBFB"/>
<path d="M198.222 100.619L215.681 98.9876L248.99 126.595L241.569 137.977L198.222 100.619Z" fill="#FBFBFB"/>
<path d="M249.738 198.921L263.015 193.663L281.425 208.323L273.36 219.162L249.738 198.921Z" fill="#FBFBFB"/>
<path d="M251.532 232.154L267.614 229.068L240.457 194.604L230.682 206.514L251.532 232.154Z" fill="#FBFBFB"/>
<path d="M231.054 206.944L226.764 193.504L265.1 167.049L274.202 177.165L231.054 206.944Z" fill="#FBFBFB"/>
<path d="M265.22 239.461L251.532 232.154L291.162 204.854L300.282 214.974L265.22 239.461Z" fill="#FBFBFB"/>
<path d="M303.076 235.257L292.229 244.17L310 265.816L320.154 254.3L303.076 235.257Z" fill="#FBFBFB"/>
<path d="M245.242 284.094L260.569 292.653L322.353 267.669L320.112 254.236L245.242 284.094Z" fill="#FBFBFB"/>
<path d="M323.668 266.812L312.821 275.724L330.591 297.37L340.746 285.855L323.668 266.812Z" fill="#FBFBFB"/>
<path d="M265.834 315.647L281.162 324.205L342.939 299.211L340.704 285.789L265.834 315.647Z" fill="#FBFBFB"/>
<path d="M236.718 266.527L184.358 201.319L195.446 196.466L245.977 260.484L236.718 266.527Z" fill="#FBFBFB"/>
<path d="M218.356 232.388L213.773 220.087L229.819 217.528L235.318 229.691L218.356 232.388Z" fill="#FBFBFB"/>
<path d="M185.499 188.045L133.146 122.848L144.234 117.995L194.759 182.003L185.499 188.045Z" fill="#FBFBFB"/>
<path d="M167.138 153.906L162.555 141.604L178.608 139.057L184.106 151.219L167.138 153.906Z" fill="#FBFBFB"/>
<path d="M361.983 302.089L279.049 346.407L287.468 355.197L368.039 311.368L361.983 302.089Z" fill="#FBFBFB"/>
<path d="M342.508 329.971L327.315 331.804L340.968 347.842L348.895 337.795L342.508 329.971Z" fill="#FBFBFB"/>
</g>
<path d="M415.433 389.09L412.877 390.808L399.975 371.613L402.531 369.895L407.951 377.959L409.601 376.85L406.071 371.598L413.507 366.599L422.708 380.287L420.175 381.989L413.068 371.416L410.697 373.009L417.883 383.699L415.35 385.401L411.679 379.94L410.029 381.049L415.433 389.09ZM405.791 391.86C404.505 392.724 403.074 392.787 401.497 392.047C399.931 391.323 398.398 389.846 396.899 387.615C395.399 385.384 394.605 383.399 394.515 381.66C394.426 379.921 395.024 378.619 396.31 377.755C397.58 376.901 399.004 376.843 400.58 377.583C402.157 378.322 403.695 379.808 405.195 382.039C406.694 384.269 407.483 386.247 407.562 387.97C407.652 389.71 407.061 391.006 405.791 391.86ZM403.752 388.575C404.232 388.252 404.406 387.674 404.273 386.841C404.166 386.013 403.676 384.949 402.801 383.647C401.926 382.346 401.121 381.482 400.384 381.055C399.662 380.618 399.062 380.56 398.581 380.883L398.303 381.071C397.838 381.383 397.672 381.956 397.804 382.789C397.921 383.632 398.417 384.705 399.292 386.006C400.156 387.292 400.957 388.148 401.694 388.575C402.415 389.012 403.008 389.075 403.473 388.763L403.752 388.575ZM429.879 411.282L427.801 408.192L417.251 415.283L415.158 412.169L435.793 398.299L437.886 401.413L430.404 406.442L432.481 409.533L429.879 411.282ZM425.858 401.637C423.519 403.209 421.396 403.883 419.49 403.657C417.61 403.436 416.097 402.474 414.951 400.77C413.796 399.05 413.465 397.271 413.96 395.431C414.481 393.596 415.912 391.893 418.251 390.32C420.59 388.748 422.7 388.072 424.58 388.292C426.486 388.518 428.017 389.491 429.173 391.21C430.319 392.915 430.631 394.684 430.11 396.519C429.615 398.359 428.197 400.065 425.858 401.637ZM425.127 397.338C426.088 396.692 426.683 395.988 426.913 395.226C427.159 394.454 427.037 393.704 426.547 392.976C426.058 392.247 425.404 391.843 424.586 391.764C423.793 391.689 422.917 391.975 421.956 392.62L418.982 394.62C418.021 395.265 417.418 395.974 417.173 396.747C416.953 397.524 417.088 398.277 417.577 399.005C418.067 399.733 418.708 400.134 419.5 400.209C420.308 400.273 421.192 399.983 422.153 399.337L425.127 397.338ZM453.047 423.968L432.412 437.838L430.303 434.701L450.939 420.831L453.047 423.968ZM437.086 427.476L434.827 429.535C433.678 428.328 432.547 427.03 431.434 425.642C430.336 424.243 429.048 422.444 427.569 420.244L426.054 417.99L434.838 412.085L439.321 418.755L442.272 416.771L437.758 410.055L440.36 408.306L446.968 418.135L438.858 423.587L434.375 416.917L430.703 419.385C431.937 421.188 433.051 422.711 434.044 423.955C435.038 425.198 436.052 426.372 437.086 427.476ZM471.603 451.573L450.968 465.444L448.859 462.306L469.494 448.436L471.603 451.573ZM456.409 448.594C456.618 448.904 456.679 449.279 456.592 449.72L454.839 456.195L451.247 455.168L453.286 448.264C453.322 448.083 453.308 447.946 453.246 447.853C453.183 447.76 453.08 447.706 452.935 447.691C450.978 447.792 448.407 447.563 445.221 447.006L445.579 443.324C448.388 443.955 450.773 444.174 452.734 443.98C454.721 443.791 456.536 443.145 458.178 442.041L458.62 441.744L455.886 437.677L458.489 435.928L466.034 447.152L463.431 448.902L460.729 444.881L460.171 445.256C458.42 446.433 456.585 447.183 454.666 447.506L454.674 447.669L455.561 447.984C455.949 448.127 456.232 448.331 456.409 448.594ZM471.885 478.394L484.109 470.177L486.186 473.268L469.524 484.468L467.447 481.377L469.608 479.924L466.703 475.602L468.98 474.071L471.885 478.394ZM470.617 459.442C471.407 458.911 472.248 458.672 473.138 458.726C474.055 458.784 474.947 459.107 475.814 459.694C476.691 460.296 477.489 461.132 478.207 462.201C478.926 463.27 479.393 464.317 479.609 465.341C479.836 466.381 479.798 467.328 479.496 468.184C479.219 469.044 478.686 469.74 477.896 470.271C477.091 470.812 476.229 471.054 475.313 470.995C474.407 470.952 473.515 470.629 472.638 470.027C471.771 469.44 470.978 468.612 470.26 467.543C469.541 466.474 469.069 465.42 468.842 464.38C468.626 463.356 468.664 462.408 468.956 461.537C469.258 460.682 469.812 459.983 470.617 459.442ZM472.571 462.65C472.091 462.972 471.846 463.429 471.838 464.019C471.841 464.625 472.081 465.284 472.56 465.997C473.039 466.709 473.554 467.173 474.103 467.389C474.663 467.62 475.183 467.574 475.664 467.251L475.896 467.095C476.392 466.761 476.638 466.292 476.636 465.686C476.644 465.096 476.409 464.444 475.93 463.732C475.451 463.019 474.931 462.547 474.371 462.317C473.822 462.101 473.299 462.16 472.803 462.493L472.571 462.65ZM465.789 468.22C464.759 466.821 463.619 465.192 462.369 463.333L464.699 461.429C466.48 464.078 468.242 466.583 469.985 468.942C471.739 471.317 473.245 473.206 474.503 474.609L472.367 476.45C471.13 475.078 469.663 473.297 467.967 471.109L464.597 473.374L462.582 470.376L465.789 468.22ZM467.923 486.151L465.413 487.838L457.166 475.568C456.281 474.252 456.497 473.151 457.813 472.266L461.392 469.86L463.47 472.951L460.425 474.997L467.923 486.151ZM489.442 499.945L480.101 486.049L489.606 479.66L491.683 482.751L489.336 484.329L494.522 492.044L496.869 490.466L498.946 493.557L489.442 499.945ZM491.966 493.762L486.78 486.047L484.735 487.421L489.921 495.137L491.966 493.762ZM486.784 505.578L481.38 497.538L474.524 502.146L472.431 499.032L479.287 494.424L473.882 486.383L476.508 484.618L489.41 503.813L486.784 505.578ZM514.821 515.868L494.185 529.739L492.092 526.625L503.13 519.206L501.037 516.092L503.64 514.342L505.733 517.456L512.728 512.754L514.821 515.868ZM498.259 518.533L496.022 520.576C494.915 519.431 493.826 518.195 492.754 516.869C491.708 515.547 490.483 513.841 489.077 511.749L487.64 509.612L501.978 499.974L508.429 509.571L505.873 511.289L501.499 504.783L498.408 506.86L502.595 513.088L500.062 514.791L495.875 508.563L492.25 511C493.39 512.662 494.426 514.069 495.357 515.22C496.288 516.371 497.255 517.475 498.259 518.533ZM383.396 402.46L375.914 391.329L378.47 389.611L388.014 403.809L386.666 404.715C384.745 406.007 382.485 407.211 379.885 408.329L378.28 405.089C379.774 404.535 381.48 403.658 383.396 402.46ZM381.018 412.223L378.462 413.941L365.559 394.747L368.116 393.029L372.864 400.093L376.466 397.672L378.559 400.786L374.957 403.207L381.018 412.223ZM371.174 415.196C370.307 415.779 369.36 416.011 368.335 415.89C367.294 415.78 366.236 415.311 365.161 414.481C364.081 413.678 363.041 412.532 362.041 411.045C361.042 409.558 360.368 408.155 360.022 406.836C359.66 405.527 359.624 404.371 359.915 403.365C360.191 402.37 360.763 401.581 361.63 400.998C362.498 400.415 363.444 400.183 364.47 400.303C365.511 400.413 366.569 400.883 367.644 401.713C368.734 402.532 369.779 403.685 370.779 405.172C371.779 406.659 372.447 408.055 372.783 409.358C373.145 410.666 373.181 411.823 372.889 412.829C372.613 413.824 372.042 414.613 371.174 415.196ZM369.158 411.896C369.7 411.531 369.923 410.909 369.827 410.029C369.74 409.165 369.26 408.082 368.385 406.781C367.5 405.464 366.669 404.595 365.89 404.173C365.123 403.767 364.468 403.746 363.925 404.111L363.623 404.314C363.097 404.668 362.881 405.285 362.978 406.165C363.074 407.044 363.56 408.135 364.435 409.436C365.31 410.738 366.131 411.591 366.899 411.997C367.677 412.419 368.329 412.453 368.856 412.099L369.158 411.896ZM383.682 422.261C382.943 421.161 382.504 420.039 382.365 418.895C382.241 417.741 382.437 416.643 382.95 415.6C383.475 414.573 384.31 413.674 385.456 412.904C386.603 412.133 387.743 411.704 388.876 411.617C390.036 411.535 391.118 411.774 392.125 412.335C393.147 412.885 394.028 413.71 394.767 414.81C395.423 415.786 395.833 416.781 395.998 417.795C396.172 418.825 396.093 419.811 395.76 420.755L398.634 425.03L401.748 422.937L403.841 426.051L388.411 436.423L386.318 433.309L391.593 429.763L388.672 425.418C387.704 425.349 386.789 425.042 385.928 424.496C385.066 423.951 384.318 423.206 383.682 422.261ZM386.192 420.574C386.671 421.286 387.253 421.716 387.937 421.864C388.646 422.016 389.381 421.838 390.14 421.327L391.465 420.437C392.224 419.927 392.659 419.319 392.77 418.615C392.907 417.915 392.736 417.209 392.257 416.497C391.768 415.769 391.168 415.328 390.458 415.176C389.774 415.028 389.053 415.209 388.294 415.72L386.969 416.61C386.21 417.12 385.762 417.725 385.625 418.425C385.514 419.129 385.703 419.845 386.192 420.574ZM393.907 423.418C393.644 423.662 393.342 423.899 393.001 424.128C392.644 424.367 392.273 424.584 391.885 424.777L394.103 428.076L396.125 426.717L393.907 423.418ZM385.609 438.88L383.053 440.598L374.993 428.607C374.108 427.29 374.324 426.189 375.641 425.304L380.962 421.727L383.071 424.864L378.33 428.051L385.609 438.88ZM422.663 454.052L402.027 467.922L400.059 464.994L420.695 451.124L422.663 454.052ZM417.581 447.144L419.471 449.956L399.695 463.248L397.805 460.437L405.474 455.282L404.099 453.237C402.78 453.584 401.6 453.567 400.558 453.188C399.526 452.825 398.672 452.139 397.995 451.132C396.985 449.63 396.777 448.049 397.371 446.39C397.965 444.731 399.409 443.131 401.702 441.589C404.01 440.038 406.032 439.298 407.766 439.369C409.511 439.455 410.894 440.258 411.915 441.776C412.55 442.721 412.869 443.698 412.873 444.708C412.887 445.733 412.56 446.751 411.891 447.763L413.375 449.971L417.581 447.144ZM408.098 446.939C408.95 446.366 409.486 445.759 409.706 445.116C409.952 444.478 409.898 443.896 409.544 443.369C409.18 442.827 408.651 442.542 407.957 442.513C407.289 442.49 406.529 442.764 405.677 443.337L401.796 445.946C400.944 446.519 400.395 447.124 400.149 447.761C399.929 448.404 400.001 448.997 400.365 449.539C400.719 450.066 401.23 450.341 401.898 450.364C402.592 450.393 403.365 450.12 404.217 449.548L408.098 446.939ZM407.937 453.626L410.911 451.627L409.849 450.047C409.411 450.431 408.866 450.842 408.215 451.28C407.89 451.498 407.454 451.769 406.906 452.092L407.937 453.626ZM437.058 475.468L416.423 489.339L414.423 486.364L425.043 479.226L424.043 477.738L413.981 484.502L411.998 481.551L431.773 468.258L433.757 471.209L426.6 476.02L427.599 477.507L435.059 472.493L437.058 475.468ZM423.142 459.181L429.031 467.942L416.157 476.596L410.268 467.835L423.142 459.181ZM414.777 469.123L416.667 471.934L424.522 466.655L422.632 463.843L414.777 469.123ZM442.462 505.29L440.65 502.594L430.1 509.686L428.038 506.618L448.673 492.748L450.735 495.815L443.253 500.845L445.064 503.541L442.462 505.29ZM437.817 488.743C436.345 489.732 434.937 490.431 433.593 490.84C432.264 491.239 430.926 491.441 429.58 491.446C428.234 491.451 426.59 491.33 424.647 491.084L424.913 487.565C426.587 487.813 427.988 487.939 429.116 487.945C430.255 487.967 431.368 487.815 432.454 487.49C433.54 487.165 434.671 486.607 435.849 485.815L437.011 485.034L435.089 482.176L437.646 480.458L441.535 486.244L437.817 488.743ZM442.051 487.011L445.549 492.216L441.506 494.934C439.926 495.996 438.425 496.758 437.003 497.219C435.581 497.68 434.158 497.939 432.734 497.996C431.311 498.053 429.532 498 427.399 497.838L427.595 494.265C429.397 494.47 430.915 494.552 432.147 494.511C433.389 494.486 434.6 494.279 435.779 493.892C436.983 493.509 438.237 492.881 439.538 492.006L441.025 491.006L439.494 488.729L442.051 487.011ZM465.537 517.836L444.901 531.706L442.793 528.569L463.428 514.699L465.537 517.836ZM450.343 514.857C450.552 515.167 450.613 515.542 450.526 515.982L448.772 522.458L445.181 521.431L447.22 514.527C447.256 514.346 447.242 514.209 447.18 514.116C447.117 514.023 447.014 513.969 446.869 513.954C444.912 514.055 442.341 513.826 439.154 513.269L439.513 509.586C442.322 510.218 444.707 510.436 446.668 510.243C448.655 510.054 450.47 509.408 452.112 508.304L452.554 508.007L449.82 503.94L452.423 502.191L459.967 513.415L457.365 515.164L454.663 511.144L454.105 511.519C452.354 512.696 450.519 513.446 448.6 513.769L448.608 513.932L449.494 514.247C449.883 514.39 450.166 514.594 450.343 514.857ZM349.316 434.376L346.714 436.125L344.652 433.058L337.913 437.587L335.82 434.474L351.715 423.789L353.808 426.903L347.255 431.308L349.316 434.376ZM345.727 421.607L341.54 415.379L344.143 413.629L348.329 419.857L345.727 421.607ZM332.889 425.546C332.191 424.508 331.753 423.487 331.573 422.484C331.403 421.495 331.47 420.607 331.772 419.819C332.085 419.047 332.575 418.436 333.241 417.989C334.558 417.104 335.885 417.054 337.224 417.841L337.41 417.717L335.442 414.789L337.998 413.07L346.371 425.526L343.814 427.244L341.846 424.316L341.66 424.441C341.894 425.993 341.352 427.212 340.036 428.097C339.369 428.545 338.614 428.76 337.77 428.743C336.927 428.725 336.074 428.444 335.212 427.898C334.361 427.368 333.587 426.584 332.889 425.546ZM335.382 423.634L335.601 423.959C336.007 424.564 336.506 424.937 337.096 425.08C337.703 425.212 338.285 425.091 338.842 424.716C339.4 424.341 339.724 423.853 339.815 423.252C339.922 422.641 339.772 422.033 339.366 421.429L339.147 421.104C338.751 420.515 338.258 420.149 337.667 420.006C337.077 419.864 336.495 419.985 335.921 420.37C335.348 420.756 335.016 421.249 334.925 421.85C334.834 422.451 334.987 423.045 335.382 423.634ZM328.221 429.292L335.406 439.981L332.85 441.699L324.883 429.848C323.998 428.531 324.214 427.43 325.531 426.545L329.714 423.733L331.822 426.87L328.221 429.292ZM352.269 450.764L345.459 440.632L356.288 433.354L358.318 436.374L355.228 438.452L357.977 442.542L361.068 440.464L363.098 443.485L358.939 446.281L361.453 450.023L366.891 446.368L368.984 449.481L353.554 459.853L351.461 456.739L358.851 451.772L356.336 448.031L352.269 450.764ZM355.444 444.244L352.695 440.155L350.046 441.935L352.795 446.025L355.444 444.244ZM350.752 462.31L348.196 464.028L340.136 452.037C339.251 450.721 339.467 449.62 340.784 448.735L346.012 445.22L348.121 448.357L343.473 451.481L350.752 462.31ZM383.645 471.293L363.01 485.164L361.011 482.189L381.646 468.318L383.645 471.293ZM378.407 464.153L380.375 467.081L360.6 480.373L358.632 477.445L368.926 470.526L368.098 469.294C366.084 470.446 364.294 470.929 362.73 470.743C361.181 470.547 359.943 469.76 359.017 468.381C357.996 466.863 357.775 465.28 358.354 463.631C358.948 461.972 360.392 460.372 362.684 458.831C364.993 457.279 367.02 456.547 368.765 456.633C370.51 456.72 371.892 457.522 372.913 459.04C373.808 460.373 374.073 461.769 373.705 463.231C373.364 464.697 372.342 466.138 370.639 467.553L371.482 468.807L378.407 464.153ZM369.003 464.165C369.839 463.603 370.378 463.016 370.619 462.404C370.86 461.792 370.804 461.223 370.45 460.696C370.106 460.185 369.6 459.918 368.932 459.894C368.275 459.886 367.528 460.164 366.691 460.726L362.903 463.272C362.067 463.834 361.528 464.421 361.287 465.033C361.056 465.661 361.113 466.23 361.457 466.741C361.811 467.268 362.316 467.535 362.974 467.543C363.631 467.551 364.379 467.274 365.215 466.711L369.003 464.165ZM374.289 485.43L380.154 479.901L384.662 476.871L387.099 480.496L382.591 483.527L375.273 486.894L374.289 485.43ZM369.366 489.751C368.866 489.007 368.677 488.358 368.799 487.804C368.932 487.265 369.246 486.829 369.742 486.495L370.299 486.121C370.795 485.787 371.318 485.661 371.867 485.742C372.426 485.838 372.956 486.258 373.456 487.002C373.956 487.745 374.139 488.386 374.007 488.925C373.885 489.48 373.576 489.924 373.08 490.257L372.522 490.632C372.026 490.965 371.499 491.084 370.939 490.987C370.39 490.907 369.866 490.494 369.366 489.751Z" fill="#FBFBFB"/>
<g clip-path="url(#clip3_3884_13014)">
<path d="M670.129 840.185L663.103 826.207L690.983 812.179L696.125 828.515L670.129 840.185Z" fill="#FBFBFB"/>
<path d="M644.748 834.938L658.581 828.138L635.894 801.17L624.934 814.416L644.748 834.938Z" fill="#FBFBFB"/>
<path d="M625.354 814.908L620.64 799.939L663.52 770.537L673.617 781.812L625.354 814.908Z" fill="#FBFBFB"/>
<path d="M647.918 786.894L667.4 785.112L704.397 815.892L696.064 828.553L647.918 786.894Z" fill="#FBFBFB"/>
<path d="M704.86 896.41L719.691 890.573L740.142 906.918L731.087 918.963L704.86 896.41Z" fill="#FBFBFB"/>
<path d="M706.689 933.413L724.636 929.998L694.526 891.582L683.566 904.828L706.689 933.413Z" fill="#FBFBFB"/>
<path d="M683.986 905.318L679.272 890.349L722.151 860.947L732.248 872.222L683.986 905.318Z" fill="#FBFBFB"/>
<path d="M721.913 941.565L706.689 933.412L751.015 903.072L761.124 914.339L721.913 941.565Z" fill="#FBFBFB"/>
<path d="M764.135 936.924L751.995 946.831L771.706 970.965L783.087 958.158L764.135 936.924Z" fill="#FBFBFB"/>
<path d="M699.409 991.227L716.455 1000.78L785.463 973.032L783.04 958.086L699.409 991.227Z" fill="#FBFBFB"/>
<path d="M786.933 972.078L774.793 981.986L794.504 1006.12L805.885 993.313L786.933 972.078Z" fill="#FBFBFB"/>
<path d="M722.207 1026.38L739.253 1035.93L808.261 1008.19L805.838 993.242L722.207 1026.38Z" fill="#FBFBFB"/>
<path d="M689.996 971.659L631.951 898.994L644.339 893.606L700.351 964.944L689.996 971.659Z" fill="#FBFBFB"/>
<path d="M669.699 933.628L664.644 919.915L682.556 917.1L688.624 930.647L669.699 933.628Z" fill="#FBFBFB"/>
<path d="M633.291 884.219L575.254 811.566L587.633 806.166L643.646 877.504L633.291 884.219Z" fill="#FBFBFB"/>
<path d="M612.994 846.188L607.947 832.487L625.859 829.672L631.919 843.208L612.994 846.188Z" fill="#FBFBFB"/>
<path d="M829.481 1011.42L736.783 1060.65L746.125 1070.44L836.185 1021.76L829.481 1011.42Z" fill="#FBFBFB"/>
<path d="M609.002 717.561L637.427 723.597L576.542 629.711L516.602 650.642L574.507 739.931L602.931 745.967L591.76 728.742L620.173 734.786L609.002 717.561Z" fill="#FBFBFB"/>
<path d="M564.793 687.524L515.53 719.471L478.742 612.927L528.499 590.07L564.793 687.524Z" fill="#FBFBFB"/>
</g>
</g>
<g clip-path="url(#clip4_3884_13014)">
<path d="M929.862 320.287L921.513 333.517L895.113 316.871L906.454 304.038L929.862 320.287Z" fill="#FBFBFB"/>
<path d="M938.463 344.736L925.502 336.394L914.104 369.742L931.106 372.297L938.463 344.736Z" fill="#FBFBFB"/>
<path d="M931.308 371.684L920.917 383.445L873.609 361.881L878.058 347.415L931.308 371.684Z" fill="#FBFBFB"/>
<path d="M895.67 366.807L884.093 351.036L891.373 303.464L906.518 304.07L895.67 366.807Z" fill="#FBFBFB"/>
<path d="M960.11 261.527L947.459 251.833L950.91 225.881L965.9 227.424L960.11 261.527Z" fill="#FBFBFB"/>
<path d="M990.864 240.87L978.68 227.258L961.305 272.871L978.307 275.426L990.864 240.87Z" fill="#FBFBFB"/>
<path d="M978.511 274.813L968.119 286.574L920.811 265.01L925.26 250.544L978.511 274.813Z" fill="#FBFBFB"/>
<path d="M989.994 223.623L990.864 240.871L942.005 218.551L946.441 204.079L989.994 223.623Z" fill="#FBFBFB"/>
<path d="M964.235 189.847L978.985 195.135L989.49 165.8L972.648 162.658L964.235 189.847Z" fill="#FBFBFB"/>
<path d="M1044.15 217.281L1043.53 197.752L984.164 152.95L972.611 162.736L1044.15 217.281Z" fill="#FBFBFB"/>
<path d="M982.588 152.181L997.339 157.469L1007.84 128.134L991.001 124.992L982.588 152.181Z" fill="#FBFBFB"/>
<path d="M1062.5 179.613L1061.89 160.084L1002.52 115.282L990.964 125.068L1062.5 179.613Z" fill="#FBFBFB"/>
<path d="M1032.24 235.44L999.937 322.652L988.93 314.82L1021.14 230.034L1032.24 235.44Z" fill="#FBFBFB"/>
<path d="M1010.13 272.449L1000.99 283.853L989.34 269.962L997.815 257.774L1010.13 272.449Z" fill="#FBFBFB"/>
<path d="M986.589 329.126L954.293 416.326L943.281 408.507L975.494 323.72L986.589 329.126Z" fill="#FBFBFB"/>
<path d="M964.482 366.135L955.349 377.527L943.696 363.635L952.165 351.461L964.482 366.135Z" fill="#FBFBFB"/>
<path d="M994.336 95.4392L1084.33 149.451L1087.9 136.393L999.733 84.3631L994.336 95.4392Z" fill="#FBFBFB"/>
<path d="M856.354 435.913L846.86 408.449L797.845 509.042L846.699 549.591L893.315 453.922L883.821 426.459L874.828 444.915L865.347 417.457L856.354 435.913Z" fill="#FBFBFB"/>
<path d="M853.432 489.281L906.214 515L833.923 601.482L788.674 570.65L853.432 489.281Z" fill="#FBFBFB"/>
</g>
<defs>
<filter id="filter0_d_3884_13014" x="512.172" y="217.348" width="392.501" height="431.5" filterUnits="userSpaceOnUse" color-interpolation-filters="sRGB">
<feFlood flood-opacity="0" result="BackgroundImageFix"/>
<feColorMatrix in="SourceAlpha" type="matrix" values="0 0 0 0 0 0 0 0 0 0 0 0 0 0 0 0 0 0 127 0" result="hardAlpha"/>
<feOffset dx="8" dy="8"/>
<feGaussianBlur stdDeviation="10"/>
<feComposite in2="hardAlpha" operator="out"/>
<feColorMatrix type="matrix" values="0 0 0 0 0 0 0 0 0 0 0 0 0 0 0 0 0 0 0.45 0"/>
<feBlend mode="normal" in2="BackgroundImageFix" result="effect1_dropShadow_3884_13014"/>
<feBlend mode="normal" in="SourceGraphic" in2="effect1_dropShadow_3884_13014" result="shape"/>
</filter>
<filter id="filter1_d_3884_13014" x="693.672" y="-245.652" width="607" height="894.5" filterUnits="userSpaceOnUse" color-interpolation-filters="sRGB">
<feFlood flood-opacity="0" result="BackgroundImageFix"/>
<feColorMatrix in="SourceAlpha" type="matrix" values="0 0 0 0 0 0 0 0 0 0 0 0 0 0 0 0 0 0 127 0" result="hardAlpha"/>
<feOffset dx="8" dy="8"/>
<feGaussianBlur stdDeviation="10"/>
<feComposite in2="hardAlpha" operator="out"/>
<feColorMatrix type="matrix" values="0 0 0 0 0 0 0 0 0 0 0 0 0 0 0 0 0 0 0.45 0"/>
<feBlend mode="normal" in2="BackgroundImageFix" result="effect1_dropShadow_3884_13014"/>
<feBlend mode="normal" in="SourceGraphic" in2="effect1_dropShadow_3884_13014" result="shape"/>
</filter>
<filter id="filter2_d_3884_13014" x="54.3867" y="217.35" width="673.785" height="853.168" filterUnits="userSpaceOnUse" color-interpolation-filters="sRGB">
<feFlood flood-opacity="0" result="BackgroundImageFix"/>
<feColorMatrix in="SourceAlpha" type="matrix" values="0 0 0 0 0 0 0 0 0 0 0 0 0 0 0 0 0 0 127 0" result="hardAlpha"/>
<feOffset dx="8" dy="8"/>
<feGaussianBlur stdDeviation="10"/>
<feComposite in2="hardAlpha" operator="out"/>
<feColorMatrix type="matrix" values="0 0 0 0 0 0 0 0 0 0 0 0 0 0 0 0 0 0 0.45 0"/>
<feBlend mode="normal" in2="BackgroundImageFix" result="effect1_dropShadow_3884_13014"/>
<feBlend mode="normal" in="SourceGraphic" in2="effect1_dropShadow_3884_13014" result="shape"/>
</filter>
<filter id="filter3_d_3884_13014" x="0.760742" y="-105.855" width="940.985" height="1306.92" filterUnits="userSpaceOnUse" color-interpolation-filters="sRGB">
<feFlood flood-opacity="0" result="BackgroundImageFix"/>
<feColorMatrix in="SourceAlpha" type="matrix" values="0 0 0 0 0 0 0 0 0 0 0 0 0 0 0 0 0 0 127 0" result="hardAlpha"/>
<feOffset dx="8" dy="8"/>
<feGaussianBlur stdDeviation="10"/>
<feComposite in2="hardAlpha" operator="out"/>
<feColorMatrix type="matrix" values="0 0 0 0 0 0 0 0 0 0 0 0 0 0 0 0 0 0 0.45 0"/>
<feBlend mode="normal" in2="BackgroundImageFix" result="effect1_dropShadow_3884_13014"/>
<feBlend mode="normal" in="SourceGraphic" in2="effect1_dropShadow_3884_13014" result="shape"/>
</filter>
<clipPath id="clip0_3884_13014">
<rect width="302" height="94.9632" fill="white" transform="translate(187.672 806.344) rotate(-56.9013)"/>
</clipPath>
<clipPath id="clip1_3884_13014">
<rect width="782.381" height="199.752" fill="white" transform="matrix(0.798241 -0.602338 0.959912 0.2803 394.316 290.607)"/>
</clipPath>
<clipPath id="clip2_3884_13014">
<rect width="302" height="94.9632" fill="white" transform="translate(212.672 70.9473) rotate(56.8701)"/>
</clipPath>
<clipPath id="clip3_3884_13014">
<rect width="555" height="106" fill="white" transform="translate(544.936 570) rotate(57.0364)"/>
</clipPath>
<clipPath id="clip4_3884_13014">
<rect width="555" height="106" fill="white" transform="translate(763 566.924) rotate(-64.0219)"/>
</clipPath>
</defs>
</svg>
