<svg width="313" height="150" viewBox="0 0 313 150" fill="none" xmlns="http://www.w3.org/2000/svg">
<path d="M24.64 8.12H4.36V3.64H29.88V6.68C29.88 9.85333 29.7067 12.92 29.36 15.88C29.04 18.8133 28.6267 21.4267 28.12 23.72L23 22.88C23.9867 18.4533 24.5333 13.5333 24.64 8.12ZM33.36 28.08V32.56H0.32V28.08H7.6V16.24H12.8V28.08H16.4V16.24H21.6V28.08H33.36ZM68.6241 0.839998V36.36H63.4641V18.08H60.5441V35.4H55.4241V1.36H60.5441V13.68H63.4641V0.839998H68.6241ZM53.2641 21.28L53.9041 25.6C50.3574 26.4267 46.1574 26.84 41.3041 26.84H38.4641V4.44H43.6241V22.4C47.2507 22.32 50.4641 21.9467 53.2641 21.28ZM108.061 6.28H88.9012V1.88H113.341V4.2C113.341 7.50666 112.968 11.1467 112.221 15.12L107.101 14.44C107.635 12.2267 107.955 9.50667 108.061 6.28ZM117.741 16.88V21.28H84.7012V16.88H96.8612V10.68H102.221V16.88H117.741ZM113.421 30.92C113.421 32.4133 112.941 33.72 111.981 34.84C111.021 35.9867 109.621 36.8667 107.781 37.48C105.968 38.12 103.781 38.44 101.221 38.44C98.6612 38.44 96.4612 38.12 94.6212 37.48C92.7812 36.8667 91.3812 35.9867 90.4212 34.84C89.4612 33.72 88.9812 32.4133 88.9812 30.92C88.9812 29.4267 89.4612 28.12 90.4212 27C91.3812 25.8533 92.7812 24.9733 94.6212 24.36C96.4612 23.72 98.6612 23.4 101.221 23.4C103.781 23.4 105.968 23.72 107.781 24.36C109.621 24.9733 111.021 25.8533 111.981 27C112.941 28.12 113.421 29.4267 113.421 30.92ZM107.901 30.68C107.901 29.7467 107.341 28.9867 106.221 28.4C105.128 27.8133 103.461 27.52 101.221 27.52C98.9546 27.52 97.2612 27.8133 96.1412 28.4C95.0479 28.9867 94.5012 29.7467 94.5012 30.68V31.2C94.5012 32.1067 95.0612 32.8533 96.1812 33.44C97.3012 34.0267 98.9812 34.32 101.221 34.32C103.461 34.32 105.128 34.0267 106.221 33.44C107.341 32.8533 107.901 32.1067 107.901 31.2V30.68ZM131.765 21.72C129.872 21.72 128.192 21.3467 126.725 20.6C125.259 19.8267 124.112 18.72 123.285 17.28C122.485 15.84 122.085 14.1333 122.085 12.16C122.085 10.1867 122.485 8.49333 123.285 7.08C124.112 5.64 125.259 4.54666 126.725 3.8C128.192 3.02667 129.872 2.64 131.765 2.64C133.445 2.64 134.952 2.94667 136.285 3.56C137.645 4.17333 138.752 5.05333 139.605 6.2H146.965V0.839998H152.325V27.4H146.965V18.32H139.485C138.632 19.4133 137.539 20.2533 136.205 20.84C134.872 21.4267 133.392 21.72 131.765 21.72ZM131.765 17.4C132.992 17.4 133.965 17.0533 134.685 16.36C135.432 15.64 135.805 14.6267 135.805 13.32V11.04C135.805 9.73333 135.432 8.73333 134.685 8.04C133.965 7.32 132.992 6.96 131.765 6.96C130.512 6.96 129.512 7.32 128.765 8.04C128.045 8.73333 127.685 9.73333 127.685 11.04V13.32C127.685 14.6267 128.045 15.64 128.765 16.36C129.512 17.0533 130.512 17.4 131.765 17.4ZM141.285 10.52C141.365 11.0267 141.405 11.5733 141.405 12.16C141.405 12.7733 141.365 13.3867 141.285 14H146.965V10.52H141.285ZM153.005 32.68V37.08H132.365C130.099 37.08 128.965 35.9467 128.965 33.68V24.52H134.365V32.68H153.005ZM199.842 0.839998V21.92H194.482V13.4H188.602V9.04H194.482V0.839998H199.842ZM172.962 21.8L168.962 18.4C171.762 16.4533 173.829 14.6 175.162 12.84C176.496 11.0533 177.216 9.2 177.322 7.28H170.362V2.84H189.562V7.28H182.682C182.682 9.41333 182.162 11.44 181.122 13.36L181.362 13.52L182.482 12.72C182.936 12.3733 183.402 12.2 183.882 12.2C184.336 12.2 184.829 12.3733 185.362 12.72L191.242 17.6L187.242 21.08L180.962 15.52C180.696 15.3333 180.456 15.24 180.242 15.24C180.002 15.24 179.802 15.32 179.642 15.48C178.869 16.4667 177.949 17.4533 176.882 18.44C175.816 19.4267 174.509 20.5467 172.962 21.8ZM199.842 30.32C199.842 31.8667 199.376 33.24 198.442 34.44C197.536 35.64 196.189 36.5733 194.402 37.24C192.642 37.9067 190.522 38.24 188.042 38.24C185.562 38.24 183.429 37.9067 181.642 37.24C179.882 36.5733 178.536 35.64 177.602 34.44C176.669 33.24 176.202 31.8667 176.202 30.32C176.202 28.7733 176.669 27.4 177.602 26.2C178.536 25 179.882 24.0667 181.642 23.4C183.429 22.7333 185.562 22.4 188.042 22.4C190.522 22.4 192.642 22.7333 194.402 23.4C196.189 24.0667 197.536 25 198.442 26.2C199.376 27.4 199.842 28.7733 199.842 30.32ZM194.242 30.04C194.242 29.0267 193.722 28.2 192.682 27.56C191.669 26.8933 190.122 26.56 188.042 26.56C185.962 26.56 184.402 26.8933 183.362 27.56C182.322 28.2 181.802 29.0267 181.802 30.04V30.64C181.802 31.6267 182.322 32.44 183.362 33.08C184.402 33.7467 185.962 34.08 188.042 34.08C190.122 34.08 191.669 33.7467 192.682 33.08C193.722 32.44 194.242 31.6267 194.242 30.64V30.04ZM238.987 28.04V32.56H205.947V28.04H219.787V21.6H210.227V2.68H215.547V8H229.387V2.68H234.707V21.6H225.147V28.04H238.987ZM215.547 17.2H229.387V12.4H215.547V17.2ZM276.811 19.04H272.091V36.36H266.771V0.839998H272.091V14.56H276.811V19.04ZM264.731 24.36L265.211 28.6C262.411 29.0267 258.944 29.3733 254.811 29.64C250.677 29.88 246.517 30 242.331 30L241.891 25.48C244.877 25.48 247.811 25.44 250.691 25.36V19.8C248.451 19.32 246.664 18.3333 245.331 16.84C243.997 15.32 243.331 13.48 243.331 11.32C243.331 9.61333 243.757 8.10667 244.611 6.8C245.464 5.46667 246.651 4.44 248.171 3.72C249.691 3 251.411 2.64 253.331 2.64C255.251 2.64 256.971 3 258.491 3.72C260.011 4.44 261.197 5.46667 262.051 6.8C262.904 8.10667 263.331 9.61333 263.331 11.32C263.331 13.5067 262.637 15.36 261.251 16.88C259.891 18.4 258.091 19.3733 255.851 19.8V25.12C259.184 24.96 262.144 24.7067 264.731 24.36ZM253.331 15.76C254.664 15.76 255.731 15.4 256.531 14.68C257.331 13.96 257.731 12.9867 257.731 11.76V10.92C257.731 9.69333 257.331 8.72 256.531 8C255.731 7.28 254.664 6.92 253.331 6.92C251.997 6.92 250.931 7.28 250.131 8C249.331 8.72 248.931 9.69333 248.931 10.92V11.76C248.931 12.9867 249.331 13.96 250.131 14.68C250.931 15.4 251.997 15.76 253.331 15.76ZM33.36 73.64V78.04H0.32V73.64H14.2V70.8H5.16V58H28.72V62.36H10.52V66.44H28.92V70.8H19.52V73.64H33.36ZM28.96 87.28C28.96 89.4933 27.8933 91.24 25.76 92.52C23.6533 93.8 20.68 94.44 16.84 94.44C13 94.44 10.0133 93.8 7.88 92.52C5.74667 91.24 4.68 89.4933 4.68 87.28C4.68 85.0933 5.74667 83.36 7.88 82.08C10.0133 80.8 13 80.16 16.84 80.16C20.68 80.16 23.6533 80.8 25.76 82.08C27.8933 83.36 28.96 85.0933 28.96 87.28ZM23.44 87.08C23.44 86.2533 22.8933 85.5867 21.8 85.08C20.7333 84.5467 19.08 84.28 16.84 84.28C14.6 84.28 12.9333 84.5467 11.84 85.08C10.7467 85.5867 10.2 86.2533 10.2 87.08V87.56C10.2 88.36 10.7467 89.0133 11.84 89.52C12.9333 90.0533 14.6 90.32 16.84 90.32C19.0533 90.32 20.7067 90.0533 21.8 89.52C22.8933 89.0133 23.44 88.36 23.44 87.56V87.08ZM71.1841 74.2H65.8641V92.36H60.5041V56.84H65.8641V69.72H71.1841V74.2ZM56.5441 71.28C56.5441 75.3067 55.6507 78.36 53.8641 80.44C52.1041 82.4933 49.7574 83.52 46.8241 83.52C43.8641 83.52 41.4907 82.4933 39.7041 80.44C37.9441 78.36 37.0641 75.3067 37.0641 71.28C37.0641 67.2533 37.9441 64.2133 39.7041 62.16C41.4907 60.08 43.8641 59.04 46.8241 59.04C49.7574 59.04 52.1041 60.08 53.8641 62.16C55.6507 64.2133 56.5441 67.2533 56.5441 71.28ZM50.8641 68.72C50.8641 67.0667 50.5041 65.8 49.7841 64.92C49.0641 64.0133 48.0774 63.56 46.8241 63.56C45.5707 63.56 44.5707 64.0133 43.8241 64.92C43.1041 65.8 42.7441 67.0667 42.7441 68.72V73.84C42.7441 75.4933 43.1041 76.7733 43.8241 77.68C44.5707 78.56 45.5707 79 46.8241 79C48.0774 79 49.0641 78.56 49.7841 77.68C50.5041 76.7733 50.8641 75.4933 50.8641 73.84V68.72ZM104.688 56.84V92.36H99.2881V56.84H104.688ZM96.1281 78.56L96.7681 82.88C94.4215 83.28 91.9815 83.5867 89.4481 83.8C86.9148 83.9867 83.7548 84.08 79.9681 84.08H76.0881V68.96H87.5681V63.88H76.0081V59.4H92.9281V73.36H81.4481V79.68C84.5681 79.6533 87.2615 79.5467 89.5281 79.36C91.7948 79.1733 93.9948 78.9067 96.1281 78.56ZM152.325 56.84V77.92H146.965V69.4H141.085V65.04H146.965V56.84H152.325ZM125.445 77.8L121.445 74.4C124.245 72.4533 126.312 70.6 127.645 68.84C128.979 67.0533 129.699 65.2 129.805 63.28H122.845V58.84H142.045V63.28H135.165C135.165 65.4133 134.645 67.44 133.605 69.36L133.845 69.52L134.965 68.72C135.419 68.3733 135.885 68.2 136.365 68.2C136.819 68.2 137.312 68.3733 137.845 68.72L143.725 73.6L139.725 77.08L133.445 71.52C133.179 71.3333 132.939 71.24 132.725 71.24C132.485 71.24 132.285 71.32 132.125 71.48C131.352 72.4667 130.432 73.4533 129.365 74.44C128.299 75.4267 126.992 76.5467 125.445 77.8ZM152.325 86.32C152.325 87.8667 151.859 89.24 150.925 90.44C150.019 91.64 148.672 92.5733 146.885 93.24C145.125 93.9067 143.005 94.24 140.525 94.24C138.045 94.24 135.912 93.9067 134.125 93.24C132.365 92.5733 131.019 91.64 130.085 90.44C129.152 89.24 128.685 87.8667 128.685 86.32C128.685 84.7733 129.152 83.4 130.085 82.2C131.019 81 132.365 80.0667 134.125 79.4C135.912 78.7333 138.045 78.4 140.525 78.4C143.005 78.4 145.125 78.7333 146.885 79.4C148.672 80.0667 150.019 81 150.925 82.2C151.859 83.4 152.325 84.7733 152.325 86.32ZM146.725 86.04C146.725 85.0267 146.205 84.2 145.165 83.56C144.152 82.8933 142.605 82.56 140.525 82.56C138.445 82.56 136.885 82.8933 135.845 83.56C134.805 84.2 134.285 85.0267 134.285 86.04V86.64C134.285 87.6267 134.805 88.44 135.845 89.08C136.885 89.7467 138.445 90.08 140.525 90.08C142.605 90.08 144.152 89.7467 145.165 89.08C146.205 88.44 146.725 87.6267 146.725 86.64V86.04ZM191.469 84.04V88.56H158.429V84.04H172.269V77.6H162.709V58.68H168.029V64H181.869V58.68H187.189V77.6H177.629V84.04H191.469ZM168.029 73.2H181.869V68.4H168.029V73.2ZM239.947 71.96H235.267V81.88H229.947V56.84H235.267V67.48H239.947V71.96ZM222.147 61.24H211.427V57.12H222.147V61.24ZM228.547 80.64C225.667 81.0667 222.133 81.4133 217.947 81.68C213.76 81.92 209.533 82.04 205.267 82.04L204.867 77.76C207.987 77.76 211.04 77.72 214.027 77.64V75.84C212.107 75.5467 210.613 74.96 209.547 74.08C208.48 73.1733 207.947 72.1467 207.947 71C207.947 69.2667 208.853 68.0133 210.667 67.24V66.96H206.027V63.04H227.067V66.96H222.427V67.24C224.24 67.96 225.147 69.2133 225.147 71C225.147 72.1467 224.613 73.16 223.547 74.04C222.507 74.92 221.027 75.5067 219.107 75.8V77.44C222.387 77.28 225.387 77.0267 228.107 76.68L228.547 80.64ZM215.867 71.92H217.227C218.187 71.92 218.96 71.72 219.547 71.32C220.133 70.8933 220.427 70.32 220.427 69.6C220.427 68.88 220.133 68.32 219.547 67.92C218.96 67.4933 218.187 67.28 217.227 67.28H215.867C214.907 67.28 214.133 67.4933 213.547 67.92C212.96 68.32 212.667 68.88 212.667 69.6C212.667 70.32 212.96 70.8933 213.547 71.32C214.133 71.72 214.907 71.92 215.867 71.92ZM211.027 83.48H235.267V94.44H230.027V87.56H211.027V83.48ZM273.571 56.84V83.4H268.171V56.84H273.571ZM243.611 68.16C243.611 66.1867 244.011 64.4933 244.811 63.08C245.637 61.64 246.784 60.5467 248.251 59.8C249.717 59.0267 251.397 58.64 253.291 58.64C255.184 58.64 256.864 59.0267 258.331 59.8C259.797 60.5467 260.944 61.64 261.771 63.08C262.597 64.4933 263.011 66.1867 263.011 68.16C263.011 70.1067 262.597 71.8 261.771 73.24C260.944 74.6533 259.797 75.7467 258.331 76.52C256.864 77.2667 255.184 77.64 253.291 77.64C251.397 77.64 249.717 77.2667 248.251 76.52C246.784 75.7467 245.637 74.6533 244.811 73.24C244.011 71.8 243.611 70.1067 243.611 68.16ZM257.291 69.24V67.04C257.291 65.7867 256.931 64.8133 256.211 64.12C255.491 63.4 254.517 63.04 253.291 63.04C252.064 63.04 251.091 63.4 250.371 64.12C249.651 64.8133 249.291 65.7867 249.291 67.04V69.24C249.291 70.4933 249.651 71.48 250.371 72.2C251.091 72.8933 252.064 73.24 253.291 73.24C254.517 73.24 255.491 72.8933 256.211 72.2C256.931 71.48 257.291 70.4933 257.291 69.24ZM250.211 89.68V80.52H255.611V88.68H274.251V93.08H253.611C251.344 93.08 250.211 91.9467 250.211 89.68ZM283.755 65.36C283.755 62.9867 284.795 61.0933 286.875 59.68C288.981 58.2667 292.088 57.56 296.195 57.56C300.301 57.56 303.395 58.2667 305.475 59.68C307.581 61.0933 308.635 62.9867 308.635 65.36C308.635 67.76 307.581 69.6667 305.475 71.08C303.395 72.4667 300.301 73.16 296.195 73.16C292.088 73.16 288.981 72.4667 286.875 71.08C284.795 69.6667 283.755 67.76 283.755 65.36ZM302.955 65.64V65.04C302.955 64 302.395 63.1867 301.275 62.6C300.155 61.9867 298.461 61.68 296.195 61.68C293.928 61.68 292.235 61.9867 291.115 62.6C290.021 63.1867 289.475 64 289.475 65.04V65.64C289.475 66.7067 290.021 67.5333 291.115 68.12C292.235 68.7067 293.928 69 296.195 69C298.461 69 300.155 68.7067 301.275 68.12C302.395 67.5333 302.955 66.7067 302.955 65.64ZM279.675 79.76V75.32H312.715V79.76H279.675ZM284.195 89.56V81.88H289.595V88.52H308.595V92.96H287.595C285.328 92.96 284.195 91.8267 284.195 89.56ZM33.36 140.04V144.56H0.32V140.04H14.16V132.88H4.6V115.04H29.08V132.88H19.52V140.04H33.36ZM9.96 128.44H23.72V119.48H9.96V128.44ZM65.7841 129.32H41.9841V114.12H65.5841V118.64H47.4241V124.8H65.7841V129.32ZM70.2241 137.68H56.3841V149.68H51.0241V137.68H37.1841V133.16H70.2241V137.68ZM226.733 112.84V148.36H221.613V112.84H226.733ZM214.093 113.36H219.133V147.4H214.093V129.68H211.973C211.733 132.987 210.88 135.493 209.413 137.2C207.947 138.88 206.027 139.72 203.653 139.72C201.04 139.72 198.987 138.72 197.493 136.72C196 134.693 195.253 131.707 195.253 127.76C195.253 123.787 196 120.8 197.493 118.8C198.987 116.8 201.04 115.8 203.653 115.8C205.947 115.8 207.813 116.6 209.253 118.2C210.72 119.773 211.613 122.133 211.933 125.28H214.093V113.36ZM206.613 124.52C206.613 123.08 206.347 121.973 205.813 121.2C205.28 120.427 204.56 120.04 203.653 120.04C202.773 120.04 202.053 120.427 201.493 121.2C200.96 121.973 200.693 123.08 200.693 124.52V131.04C200.693 132.48 200.96 133.587 201.493 134.36C202.053 135.133 202.773 135.52 203.653 135.52C204.56 135.52 205.28 135.133 205.813 134.36C206.347 133.587 206.613 132.48 206.613 131.04V124.52ZM262.877 112.84V148.36H257.517V128.4H251.277V123.92H257.517V112.84H262.877ZM246.517 127.68C247.051 127.68 247.491 127.907 247.837 128.36L254.317 136.72L250.157 140.24L243.557 131.2C243.504 131.067 243.384 131 243.197 131C243.037 131 242.917 131.067 242.837 131.2C242.117 132.613 241.197 134.08 240.077 135.6C238.957 137.093 237.531 138.853 235.797 140.88L231.677 137.4C234.717 134.12 236.891 131.16 238.197 128.52C239.504 125.853 240.157 122.92 240.157 119.72V115.2H245.557V119.68C245.557 123.067 245.024 126.12 243.957 128.84L244.157 128.96L245.117 128.2C245.544 127.853 246.011 127.68 246.517 127.68Z" fill="#121212"/>
<path d="M117.741 140.04V144.56H84.7012V140.04H98.5412V132.88H88.9812V115.04H113.461V132.88H103.901V140.04H117.741ZM94.3412 128.44H108.101V119.48H94.3412V128.44ZM154.605 140.04V144.56H121.565V140.04H135.405V133.6H125.845V114.68H131.165V120H145.005V114.68H150.325V133.6H140.765V140.04H154.605ZM131.165 129.2H145.005V124.4H131.165V129.2ZM192.669 130.2H188.029V148.36H182.749V112.84H188.029V125.72H192.669V130.2ZM169.349 122.52C169.349 125.053 169.056 127.28 168.469 129.2C167.883 131.093 167.056 132.84 165.989 134.44C164.923 136.04 163.469 137.893 161.629 140L157.669 136.88C159.296 135.093 160.563 133.533 161.469 132.2C162.403 130.867 163.109 129.427 163.589 127.88C164.069 126.333 164.309 124.547 164.309 122.52V120.52H159.389V116.12H169.349V122.52ZM170.669 116.12H179.629V123.08C179.629 125.8 179.336 128.187 178.749 130.24C178.163 132.293 177.336 134.187 176.269 135.92C175.203 137.653 173.723 139.72 171.829 142.12L167.749 139.04C169.429 137.067 170.736 135.333 171.669 133.84C172.629 132.347 173.349 130.747 173.829 129.04C174.336 127.307 174.589 125.32 174.589 123.08V120.52H170.669V116.12Z" fill="#FF3D12"/>
</svg>
