<svg width="164" height="52" viewBox="0 0 164 52" fill="none" xmlns="http://www.w3.org/2000/svg">
<g clip-path="url(#clip0_3884_13038)">
<path d="M36.9405 20.5879L29.3467 19.749L31.0072 4.5293L39.0595 6.77345L36.9405 20.5879Z" fill="#BB2200"/>
<path d="M28.0405 29.6354L28.9298 22.127L11.8594 24.2662L14.3744 32.313L28.0405 29.6354Z" fill="#BB2200"/>
<path d="M14.6801 32.2708L7.29468 30.2155L6.6416 4.71881L13.9436 3.57227L14.6801 32.2708Z" fill="#FF3D12"/>
<path d="M9.20605 15.5063L13.6456 7.0121L36.0866 0L39.0602 6.80936L9.20605 15.5063Z" fill="#FF3D12"/>
<path d="M69.1992 21.3011L70.7486 13.6388L82.8792 9.58398L85.4151 16.5262L69.1992 21.3011Z" fill="#FF3D12"/>
<path d="M84.8451 30.4254L88.2147 22.127L64.4814 24.2662L66.9965 32.313L84.8451 30.4254Z" fill="#BB2200"/>
<path d="M67.3021 32.2708L59.9168 30.2155L59.2637 4.71881L66.5657 3.57227L67.3021 32.2708Z" fill="#FF3D12"/>
<path d="M92.2309 26.336L84.8455 30.4258L84.1924 4.08322L91.5013 2.92969L92.2309 26.336Z" fill="#FF3D12"/>
<path d="M101.555 7.71823L102.388 15.3595L117.507 13.6887L115.283 5.58594L101.555 7.71823Z" fill="#BB2200"/>
<path d="M106.599 48.854L115.04 44.3867L122.016 8.57814L115.242 5.58594L106.599 48.854Z" fill="#FF3D12"/>
<path d="M122.016 7.71823L122.849 15.3595L137.968 13.6887L135.744 5.58594L122.016 7.71823Z" fill="#BB2200"/>
<path d="M127.06 48.854L135.501 44.3867L142.47 8.57814L135.702 5.58594L127.06 48.854Z" fill="#FF3D12"/>
<path d="M96.0794 47.5035L50.8848 51.9988L51.9686 45.4621L96.0794 41.4492V47.5035Z" fill="#FF3D12"/>
<path d="M75.104 45.7076L68.1494 44.1276L71.7483 36.0039L78.9114 37.1225L75.104 45.7076Z" fill="#FF3D12"/>
<path d="M45.1877 47.5035L0 51.9988L1.08384 45.4621L45.1877 41.4492V47.5035Z" fill="#FF3D12"/>
<path d="M24.2124 45.7076L17.2578 44.1276L20.8637 36.0039L28.0267 37.1225L24.2124 45.7076Z" fill="#FF3D12"/>
<path d="M149.431 0.707031L144.971 52.0009L151.467 50.7705L155.448 0.707031H149.431Z" fill="#FF3D12"/>
<path d="M156.33 17.9818L152.654 25.4972L164 24.0361L161.784 17.3945L156.33 17.9818Z" fill="#FF3D12"/>
</g>
<defs>
<clipPath id="clip0_3884_13038">
<rect width="164" height="52" fill="white"/>
</clipPath>
</defs>
</svg>
