<svg width="172" height="32" viewBox="0 0 172 32" fill="none" xmlns="http://www.w3.org/2000/svg">
<g clip-path="url(#clip0_3966_4520)">
<path d="M90.989 12.6693L86.1895 12.1531L87.2389 2.78711L92.3327 4.16813L90.989 12.6693Z" fill="#BB2200"/>
<path d="M85.3681 18.2378L85.9302 13.6172L75.1367 14.9337L76.7263 19.8855L85.3681 18.2378Z" fill="#BB2200"/>
<path d="M76.9243 19.8599L72.2565 18.595L71.8438 2.90478L76.4588 2.19922L76.9243 19.8599Z" fill="#FF3D12"/>
<path d="M73.459 9.54235L76.2693 4.31514L90.4527 0L92.3321 4.19037L73.459 9.54235Z" fill="#FF3D12"/>
<path d="M111.381 13.109L112.36 8.39373L120.027 5.89844L121.625 10.1706L111.381 13.109Z" fill="#FF3D12"/>
<path d="M121.27 18.7239L123.4 13.6172L108.396 14.9337L109.985 19.8855L121.27 18.7239Z" fill="#BB2200"/>
<path d="M110.182 19.8599L105.514 18.595L105.102 2.90478L109.717 2.19922L110.182 19.8599Z" fill="#FF3D12"/>
<path d="M125.938 16.2066L121.27 18.7234L120.857 2.5126L125.473 1.80273L125.938 16.2066Z" fill="#FF3D12"/>
<path d="M131.826 4.74968L132.353 9.45202L141.913 8.42379L140.507 3.4375L131.826 4.74968Z" fill="#BB2200"/>
<path d="M135.019 30.064L140.354 27.3149L144.758 5.27886L140.481 3.4375L135.019 30.064Z" fill="#FF3D12"/>
<path d="M144.759 4.74968L145.286 9.45202L154.845 8.42379L153.44 3.4375L144.759 4.74968Z" fill="#BB2200"/>
<path d="M147.951 30.064L153.286 27.3149L157.691 5.27886L153.414 3.4375L147.951 30.064Z" fill="#FF3D12"/>
<path d="M128.371 29.2335L99.8066 31.9999L100.492 27.9773L128.371 25.5078V29.2335Z" fill="#FF3D12"/>
<path d="M115.114 28.1277L110.714 27.1554L112.993 22.1562L117.52 22.8446L115.114 28.1277Z" fill="#FF3D12"/>
<path d="M96.2055 29.2335L67.6455 31.9999L68.3261 27.9773L96.2055 25.5078V29.2335Z" fill="#FF3D12"/>
<path d="M82.9483 28.1277L78.5527 27.1554L80.8317 22.1562L85.3546 22.8446L82.9483 28.1277Z" fill="#FF3D12"/>
<path d="M162.091 0.433594L159.271 31.9991L163.377 31.2419L165.893 0.433594H162.091Z" fill="#FF3D12"/>
<path d="M166.446 11.0645L164.128 15.6894L171.294 14.7902L169.898 10.7031L166.446 11.0645Z" fill="#FF3D12"/>
<path d="M48.9698 8.01085L55.3062 1.80273H20.7699L16.124 20.4228H48.9698L55.3062 14.2147H48.9698L55.3062 8.01085H48.9698Z" fill="#7512FF"/>
<path d="M33.7679 14.2757V32.0009L0 23.818L2.43708 7.46094L33.7679 14.2757Z" fill="#FF3D12"/>
</g>
<defs>
<clipPath id="clip0_3966_4520">
<rect width="171.294" height="32" fill="white"/>
</clipPath>
</defs>
</svg>
