<svg width="165" height="23" viewBox="0 0 165 23" fill="none" xmlns="http://www.w3.org/2000/svg">
<path d="M18.504 4.336H2.88V1.6H18.504V4.336ZM18.672 13.264H2.712V10.576H5.952L5.232 5.848L8.544 5.512L9 10.576H12.36L12.816 5.512L16.128 5.848L15.408 10.576H18.672V13.264ZM20.616 16.6V19.336H0.792V16.6H20.616ZM42.7344 16.648V19.336H22.9104V16.648H31.2144V13.816H25.6224V6.4H36.7824V4.216H25.5984V1.552H40.0224V8.944H28.8864V11.152H40.5264V13.816H34.4304V16.648H42.7344ZM63.4849 11.608H60.2449V0.303999H63.4849V11.608ZM57.9409 3.88H45.7729V1.384H57.9409V3.88ZM58.8769 10.768C57.2129 11.024 55.1889 11.216 52.8049 11.344C50.4369 11.472 47.9649 11.536 45.3889 11.536L45.1009 9.064C46.2849 9.064 47.1809 9.056 47.7889 9.04L47.3089 5.032L50.3089 4.768L50.5249 8.992C51.6449 8.96 52.4849 8.928 53.0449 8.896L53.4289 4.72L56.4289 5.008L55.8289 8.728C56.7409 8.664 57.6529 8.576 58.5649 8.464L58.8769 10.768ZM63.9169 20.152V22.624H51.4609C50.1009 22.624 49.4209 21.944 49.4209 20.584V16.432H60.3169V15.016H49.3249V12.592H63.4849V18.712H52.5889V20.152H63.9169ZM91.9952 0.303999V12.952H88.7792V7.84H85.2512V5.224H88.7792V0.303999H91.9952ZM75.8672 12.88L73.4672 10.84C75.1472 9.672 76.3872 8.56 77.1872 7.504C77.9872 6.432 78.4192 5.32 78.4832 4.168H74.3072V1.504H85.8272V4.168H81.6992C81.6992 5.448 81.3872 6.664 80.7632 7.816L80.9072 7.912L81.5792 7.432C81.8512 7.224 82.1312 7.12 82.4192 7.12C82.6912 7.12 82.9872 7.224 83.3072 7.432L86.8352 10.36L84.4352 12.448L80.6672 9.112C80.5072 9 80.3632 8.944 80.2352 8.944C80.0912 8.944 79.9712 8.992 79.8752 9.088C79.4112 9.68 78.8592 10.272 78.2192 10.864C77.5792 11.456 76.7952 12.128 75.8672 12.88ZM91.9952 17.992C91.9952 18.92 91.7152 19.744 91.1552 20.464C90.6112 21.184 89.8032 21.744 88.7312 22.144C87.6752 22.544 86.4032 22.744 84.9152 22.744C83.4272 22.744 82.1472 22.544 81.0752 22.144C80.0192 21.744 79.2112 21.184 78.6512 20.464C78.0912 19.744 77.8112 18.92 77.8112 17.992C77.8112 17.064 78.0912 16.24 78.6512 15.52C79.2112 14.8 80.0192 14.24 81.0752 13.84C82.1472 13.44 83.4272 13.24 84.9152 13.24C86.4032 13.24 87.6752 13.44 88.7312 13.84C89.8032 14.24 90.6112 14.8 91.1552 15.52C91.7152 16.24 91.9952 17.064 91.9952 17.992ZM88.6352 17.824C88.6352 17.216 88.3232 16.72 87.6992 16.336C87.0912 15.936 86.1632 15.736 84.9152 15.736C83.6672 15.736 82.7312 15.936 82.1072 16.336C81.4832 16.72 81.1712 17.216 81.1712 17.824V18.184C81.1712 18.776 81.4832 19.264 82.1072 19.648C82.7312 20.048 83.6672 20.248 84.9152 20.248C86.1632 20.248 87.0912 20.048 87.6992 19.648C88.3232 19.264 88.6352 18.776 88.6352 18.184V17.824ZM115.482 16.624V19.336H95.6576V16.624H103.962V12.76H98.2256V1.408H101.418V4.6H109.722V1.408H112.914V12.76H107.178V16.624H115.482ZM101.418 10.12H109.722V7.24H101.418V10.12ZM126.832 11.008L125.056 8.536C127.792 7.416 129.736 6.304 130.888 5.2C132.04 4.096 132.616 2.872 132.616 1.528V0.639999H135.904V1.624C135.904 3.384 135.4 4.888 134.392 6.136L134.584 6.208L135.64 5.44C136.008 5.168 136.368 5.032 136.72 5.032C137.04 5.032 137.352 5.128 137.656 5.32L143.104 8.44L141.304 10.936L134.992 7.096C134.752 6.952 134.504 6.88 134.248 6.88C133.976 6.88 133.704 6.968 133.432 7.144H133.408C132.688 7.8 131.8 8.432 130.744 9.04C129.688 9.648 128.384 10.304 126.832 11.008ZM143.992 15.088H135.688V22.408H132.472V15.088H124.168V12.376H143.992V15.088ZM164.742 0.303999V12.952H161.526V7.84H157.998V5.224H161.526V0.303999H164.742ZM148.614 12.88L146.214 10.84C147.894 9.672 149.134 8.56 149.934 7.504C150.734 6.432 151.166 5.32 151.23 4.168H147.054V1.504H158.574V4.168H154.446C154.446 5.448 154.134 6.664 153.51 7.816L153.654 7.912L154.326 7.432C154.598 7.224 154.878 7.12 155.166 7.12C155.438 7.12 155.734 7.224 156.054 7.432L159.582 10.36L157.182 12.448L153.414 9.112C153.254 9 153.11 8.944 152.982 8.944C152.838 8.944 152.718 8.992 152.622 9.088C152.158 9.68 151.606 10.272 150.966 10.864C150.326 11.456 149.542 12.128 148.614 12.88ZM164.742 17.992C164.742 18.92 164.462 19.744 163.902 20.464C163.358 21.184 162.55 21.744 161.478 22.144C160.422 22.544 159.15 22.744 157.662 22.744C156.174 22.744 154.894 22.544 153.822 22.144C152.766 21.744 151.958 21.184 151.398 20.464C150.838 19.744 150.558 18.92 150.558 17.992C150.558 17.064 150.838 16.24 151.398 15.52C151.958 14.8 152.766 14.24 153.822 13.84C154.894 13.44 156.174 13.24 157.662 13.24C159.15 13.24 160.422 13.44 161.478 13.84C162.55 14.24 163.358 14.8 163.902 15.52C164.462 16.24 164.742 17.064 164.742 17.992ZM161.382 17.824C161.382 17.216 161.07 16.72 160.446 16.336C159.838 15.936 158.91 15.736 157.662 15.736C156.414 15.736 155.478 15.936 154.854 16.336C154.23 16.72 153.918 17.216 153.918 17.824V18.184C153.918 18.776 154.23 19.264 154.854 19.648C155.478 20.048 156.414 20.248 157.662 20.248C158.91 20.248 159.838 20.048 160.446 19.648C161.07 19.264 161.382 18.776 161.382 18.184V17.824Z" fill="#121212"/>
</svg>
