<svg width="28" height="26" viewBox="0 0 28 26" fill="none" xmlns="http://www.w3.org/2000/svg">
<mask id="path-1-inside-1_3747_31082" fill="white">
<path fill-rule="evenodd" clip-rule="evenodd" d="M13.5652 22.4589C21.0571 22.4589 27.1304 17.5535 27.1304 11.5024C27.1304 5.4513 21.0571 0.545898 13.5652 0.545898C6.07335 0.545898 0 5.4513 0 11.5024C0 15.1929 2.25902 18.4572 5.72111 20.4425L4.78566 24.0024C4.55636 24.875 5.50877 25.5811 6.27708 25.1081L10.5652 22.4681C10.6697 22.4038 10.7572 22.3247 10.8275 22.2357C11.7117 22.3821 12.6274 22.4589 13.5652 22.4589Z"/>
</mask>
<path d="M5.72111 20.4425L7.65544 20.9508L8.0447 19.4694L6.71601 18.7075L5.72111 20.4425ZM4.78566 24.0024L6.71999 24.5107L4.78566 24.0024ZM6.27708 25.1081L5.22857 23.405H5.22857L6.27708 25.1081ZM10.5652 22.4681L9.51673 20.765L9.51673 20.765L10.5652 22.4681ZM10.8275 22.2357L11.1541 20.2626L9.98934 20.0698L9.25776 20.9964L10.8275 22.2357ZM25.1304 11.5024C25.1304 16.0712 20.3726 20.4589 13.5652 20.4589V24.4589C21.7415 24.4589 29.1304 19.0359 29.1304 11.5024H25.1304ZM13.5652 2.5459C20.3726 2.5459 25.1304 6.93365 25.1304 11.5024H29.1304C29.1304 3.96895 21.7415 -1.4541 13.5652 -1.4541V2.5459ZM2 11.5024C2 6.93365 6.75782 2.5459 13.5652 2.5459V-1.4541C5.38889 -1.4541 -2 3.96895 -2 11.5024H2ZM6.71601 18.7075C3.7245 16.9921 2 14.3176 2 11.5024H-2C-2 16.0682 0.793539 19.9223 4.72621 22.1775L6.71601 18.7075ZM6.71999 24.5107L7.65544 20.9508L3.78678 19.9342L2.85133 23.4941L6.71999 24.5107ZM5.22857 23.405C5.99688 22.932 6.94929 23.6381 6.71999 24.5107L2.85133 23.4941C2.16343 26.1119 5.02065 28.2302 7.32558 26.8112L5.22857 23.405ZM9.51673 20.765L5.22857 23.405L7.32558 26.8112L11.6137 24.1713L9.51673 20.765ZM9.25776 20.9964C9.33177 20.9026 9.42037 20.8243 9.51673 20.765L11.6137 24.1713C11.9191 23.9833 12.1826 23.7468 12.3972 23.4751L9.25776 20.9964ZM13.5652 20.4589C12.7366 20.4589 11.9302 20.391 11.1541 20.2626L10.5009 24.2089C11.4932 24.3731 12.5181 24.4589 13.5652 24.4589V20.4589Z" fill="#7512FF" mask="url(#path-1-inside-1_3747_31082)"/>
<path d="M21.3048 14.0842C21.0341 14.0842 20.7914 14.0399 20.5768 13.9512C20.3668 13.8625 20.1871 13.7342 20.0378 13.5662C19.8931 13.3982 19.7811 13.1952 19.7018 12.9572C19.6224 12.7192 19.5828 12.4532 19.5828 12.1592C19.5828 11.8652 19.6224 11.5992 19.7018 11.3612C19.7811 11.1232 19.8931 10.9225 20.0378 10.7592C20.1871 10.5912 20.3668 10.4629 20.5768 10.3742C20.7914 10.2855 21.0341 10.2412 21.3048 10.2412C21.5754 10.2412 21.8158 10.2855 22.0258 10.3742C22.2404 10.4629 22.4201 10.5912 22.5648 10.7592C22.7141 10.9225 22.8284 11.1232 22.9078 11.3612C22.9871 11.5992 23.0268 11.8652 23.0268 12.1592C23.0268 12.4532 22.9871 12.7192 22.9078 12.9572C22.8284 13.1952 22.7141 13.3982 22.5648 13.5662C22.4201 13.7342 22.2404 13.8625 22.0258 13.9512C21.8158 14.0399 21.5754 14.0842 21.3048 14.0842ZM21.3048 13.2652C21.5101 13.2652 21.6688 13.2022 21.7808 13.0762C21.8928 12.9502 21.9488 12.7705 21.9488 12.5372V11.7882C21.9488 11.5549 21.8928 11.3752 21.7808 11.2492C21.6688 11.1232 21.5101 11.0602 21.3048 11.0602C21.0994 11.0602 20.9408 11.1232 20.8288 11.2492C20.7168 11.3752 20.6608 11.5549 20.6608 11.7882V12.5372C20.6608 12.7705 20.7168 12.9502 20.8288 13.0762C20.9408 13.2022 21.0994 13.2652 21.3048 13.2652Z" fill="#7512FF"/>
<path d="M18.4744 14.0002C18.2878 14.0002 18.1314 13.9419 18.0054 13.8252C17.8841 13.7085 17.8071 13.5522 17.7744 13.3562H17.7324C17.6764 13.5942 17.5528 13.7762 17.3614 13.9022C17.1701 14.0235 16.9344 14.0842 16.6544 14.0842C16.2858 14.0842 16.0034 13.9862 15.8074 13.7902C15.6114 13.5942 15.5134 13.3352 15.5134 13.0132C15.5134 12.6259 15.6534 12.3389 15.9334 12.1522C16.2181 11.9609 16.6031 11.8652 17.0884 11.8652H17.6694V11.6342C17.6694 11.4569 17.6228 11.3169 17.5294 11.2142C17.4361 11.1069 17.2798 11.0532 17.0604 11.0532C16.8551 11.0532 16.6918 11.0975 16.5704 11.1862C16.4491 11.2749 16.3488 11.3752 16.2694 11.4872L15.6534 10.9412C15.8028 10.7219 15.9894 10.5515 16.2134 10.4302C16.4421 10.3042 16.7501 10.2412 17.1374 10.2412C17.6601 10.2412 18.0521 10.3555 18.3134 10.5842C18.5748 10.8129 18.7054 11.1465 18.7054 11.5852V13.1952H19.0484V14.0002H18.4744ZM17.0394 13.3632C17.2121 13.3632 17.3591 13.3259 17.4804 13.2512C17.6064 13.1765 17.6694 13.0552 17.6694 12.8872V12.4532H17.1654C16.7594 12.4532 16.5564 12.5909 16.5564 12.8662V12.9712C16.5564 13.1065 16.5984 13.2069 16.6824 13.2722C16.7664 13.3329 16.8854 13.3632 17.0394 13.3632Z" fill="#7512FF"/>
<path d="M11.6484 8.82031H12.6844V11.8793H12.7264L13.1814 11.2003L13.9164 10.3253H15.0644L13.8394 11.7323L15.2044 14.0003H13.9724L13.1464 12.4463L12.6844 12.9643V14.0003H11.6484V8.82031Z" fill="#7512FF"/>
<path d="M10.309 14.0002C10.1224 14.0002 9.96602 13.9419 9.84002 13.8252C9.71869 13.7085 9.64169 13.5522 9.60902 13.3562H9.56702C9.51102 13.5942 9.38736 13.7762 9.19602 13.9022C9.00469 14.0235 8.76902 14.0842 8.48902 14.0842C8.12036 14.0842 7.83802 13.9862 7.64202 13.7902C7.44602 13.5942 7.34802 13.3352 7.34802 13.0132C7.34802 12.6259 7.48802 12.3389 7.76802 12.1522C8.05269 11.9609 8.43769 11.8652 8.92302 11.8652H9.50402V11.6342C9.50402 11.4569 9.45736 11.3169 9.36402 11.2142C9.27069 11.1069 9.11436 11.0532 8.89502 11.0532C8.68969 11.0532 8.52636 11.0975 8.40502 11.1862C8.28369 11.2749 8.18336 11.3752 8.10402 11.4872L7.48802 10.9412C7.63736 10.7219 7.82402 10.5515 8.04802 10.4302C8.27669 10.3042 8.58469 10.2412 8.97202 10.2412C9.49469 10.2412 9.88669 10.3555 10.148 10.5842C10.4094 10.8129 10.54 11.1465 10.54 11.5852V13.1952H10.883V14.0002H10.309ZM8.87402 13.3632C9.04669 13.3632 9.19369 13.3259 9.31502 13.2512C9.44102 13.1765 9.50402 13.0552 9.50402 12.8872V12.4532H9.00002C8.59402 12.4532 8.39102 12.5909 8.39102 12.8662V12.9712C8.39102 13.1065 8.43302 13.2069 8.51702 13.2722C8.60102 13.3329 8.72002 13.3632 8.87402 13.3632Z" fill="#7512FF"/>
<path d="M3.48297 8.82031H4.51897V11.8793H4.56097L5.01597 11.2003L5.75097 10.3253H6.89897L5.67397 11.7323L7.03897 14.0003H5.80697L4.98097 12.4463L4.51897 12.9643V14.0003H3.48297V8.82031Z" fill="#7512FF"/>
</svg>
