<svg width="29" height="24" viewBox="0 0 29 24" fill="none" xmlns="http://www.w3.org/2000/svg">
<path d="M14.5 0C14.5 0 5.49359 -4.70281e-05 3.24719 0.626953C2.00735 0.971953 1.03308 1.98832 0.701881 3.27832C0.099961 5.61832 0.100006 12 0.100006 12C0.100006 12 0.099961 18.3817 0.701881 20.7217C1.03308 22.0132 2.00879 23.028 3.24719 23.373C5.49359 24 14.5 24 14.5 24C14.5 24 23.5064 24 25.7528 23.373C26.9912 23.028 27.9669 22.0117 28.2981 20.7217C28.9 18.3817 28.9 12 28.9 12C28.9 12 28.9 5.61832 28.2981 3.27832C27.9669 1.98832 26.9912 0.971953 25.7528 0.626953C23.5064 -4.70281e-05 14.5 0 14.5 0ZM14.5 3C18.6501 3 23.8469 3.20041 25.0075 3.52441C25.2509 3.59191 25.4503 3.79969 25.5166 4.05469C25.8636 5.40169 26.02 9.513 26.02 12C26.02 14.487 25.8636 18.5968 25.5166 19.9453C25.4518 20.1988 25.2523 20.4066 25.0075 20.4756C23.8483 20.7996 18.6501 21 14.5 21C10.3514 21 5.15459 20.7996 3.99251 20.4756C3.74915 20.4081 3.54968 20.2003 3.48344 19.9453C3.1364 18.5983 2.98001 14.487 2.98001 12C2.98001 9.513 3.1364 5.40176 3.48344 4.05176C3.54824 3.79976 3.74771 3.59191 3.99251 3.52441C5.15171 3.20041 10.3499 3 14.5 3ZM11.62 6.80273V17.1973L20.26 12L11.62 6.80273Z" fill="#7512FF"/>
</svg>
